<?xml version="1.0" standalone="no"?>
<!DOCTYPE svg PUBLIC "-//W3C//DTD SVG 20010904//EN"
 "http://www.w3.org/TR/2001/REC-SVG-20010904/DTD/svg10.dtd">
<svg version="1.0" xmlns="http://www.w3.org/2000/svg"
 width="1024.000000pt" height="1024.000000pt" viewBox="0 0 1024.000000 1024.000000"
 preserveAspectRatio="xMidYMid meet">

<g transform="translate(0.000000,1024.000000) scale(0.100000,-0.100000)"
fill="#000000" stroke="none">
<path d="M4120 10157 c-347 -210 -654 -451 -910 -713 -159 -163 -192 -201
-331 -379 -240 -307 -431 -694 -543 -1102 -85 -305 -136 -679 -136 -987 0
-114 3 -135 20 -164 l21 -34 120 7 120 8 -8 -64 c-44 -346 94 -602 412 -761
39 -20 84 -38 101 -42 28 -6 31 -11 48 -84 24 -106 96 -272 172 -398 78 -130
127 -196 226 -299 43 -46 74 -86 70 -92 -4 -6 -43 -23 -86 -38 -44 -14 -136
-55 -205 -90 -69 -35 -148 -69 -174 -76 -64 -15 -162 -7 -222 20 -47 21 -156
119 -329 299 l-69 72 23 147 c30 190 31 311 3 374 -58 129 -207 183 -330 120
-39 -20 -121 -100 -142 -139 -6 -12 -15 -22 -19 -22 -7 0 -77 113 -156 252
-31 54 -85 104 -132 124 -54 23 -161 18 -219 -10 -54 -25 -103 -74 -124 -123
-13 -31 -13 -31 -84 -30 -165 3 -277 -108 -277 -273 0 -45 -1 -48 -41 -66 -55
-24 -97 -67 -125 -129 -62 -132 -3 -367 143 -574 64 -91 277 -301 401 -396 56
-43 102 -82 102 -88 0 -5 -14 -34 -31 -64 -27 -46 -29 -58 -20 -83 30 -86 179
-262 383 -450 411 -381 725 -533 1197 -580 57 -5 128 -10 158 -10 52 0 55 -1
49 -22 -3 -13 -51 -187 -106 -388 -399 -1452 -369 -1337 -370 -1398 0 -34 6
-48 26 -67 47 -44 239 -125 547 -230 153 -53 168 -60 163 -79 -3 -12 -19 -95
-36 -186 -18 -91 -35 -169 -40 -173 -4 -5 -56 -26 -115 -47 -275 -100 -440
-239 -541 -453 -10 -21 -27 -40 -39 -42 -11 -3 -272 -9 -580 -14 -616 -10
-637 -12 -643 -65 -2 -15 2 -34 8 -41 11 -13 512 -15 3648 -15 3362 0 3637 1
3654 17 22 20 23 56 3 73 -24 20 -230 30 -780 38 l-489 7 -34 69 c-95 197
-264 333 -536 432 -51 19 -84 37 -94 53 -18 27 -76 372 -64 381 9 8 161 64
287 107 240 81 335 135 335 194 0 23 -64 282 -80 324 -25 64 4 27 86 -112 348
-593 504 -817 852 -1225 99 -117 111 -120 179 -50 108 110 390 514 567 812
268 449 436 879 555 1420 88 400 121 878 136 1955 3 237 2 435 -2 442 -5 6
-42 24 -83 39 -376 135 -658 357 -1085 855 -128 148 -161 179 -190 179 -35 0
-100 -62 -265 -255 -335 -390 -657 -638 -998 -770 l-94 -36 -46 30 c-49 30
-157 71 -191 71 -16 0 -31 18 -31 36 0 3 43 50 95 105 187 198 323 438 375
664 l16 70 42 7 c59 10 166 69 245 134 158 131 248 328 247 543 -1 57 -7 112
-15 136 -8 22 -15 42 -15 44 0 2 54 1 119 -2 194 -11 201 -3 201 203 0 229
-41 573 -100 835 -102 459 -335 945 -628 1312 -303 380 -712 732 -1161 1000
-187 111 -158 103 -353 103 -163 -1 -171 -2 -143 -16 561 -292 957 -578 1304
-942 218 -228 388 -454 519 -689 29 -51 52 -94 52 -97 0 -2 20 -46 44 -98 112
-238 178 -437 229 -700 50 -253 58 -321 64 -550 l6 -207 -322 3 c-177 2 -325
6 -328 9 -3 3 -16 57 -28 119 -60 287 -153 466 -345 658 -112 113 -309 254
-425 305 -319 141 -544 201 -840 225 -169 14 -748 14 -880 1 -227 -24 -306
-39 -473 -86 -144 -42 -286 -97 -415 -161 -285 -144 -513 -370 -632 -627 -44
-95 -91 -256 -106 -360 l-11 -82 -329 -4 -329 -3 0 153 c0 269 37 529 112 799
121 433 266 725 545 1098 171 228 585 624 818 782 28 19 77 55 110 81 33 25
96 69 140 96 116 72 425 257 460 276 29 15 22 16 -135 16 l-165 0 -135 -82z
m1197 -2055 l62 -4 -32 -60 c-40 -76 -191 -232 -276 -287 -78 -50 -197 -96
-282 -111 -35 -6 -217 -15 -404 -20 -187 -5 -349 -11 -360 -13 -11 -3 -42 -8
-70 -11 -75 -11 -230 -53 -320 -88 -95 -37 -227 -120 -301 -190 -30 -28 -54
-49 -54 -46 0 13 56 128 85 174 52 81 151 191 229 252 132 105 405 252 443
238 8 -3 12 -2 9 3 -6 10 56 34 222 85 115 36 235 60 377 75 81 9 559 11 672
3z m528 -56 c158 -39 300 -91 475 -173 73 -34 91 -46 80 -55 -12 -8 -11 -9 4
-4 35 12 240 -145 342 -260 79 -90 184 -248 184 -278 0 -3 -23 18 -51 45 -115
112 -288 208 -486 270 -253 79 -298 95 -295 108 1 7 -2 10 -8 6 -32 -20 -266
157 -328 247 -30 44 -62 102 -62 113 0 9 74 -1 145 -19z m-280 -63 c56 -124
152 -240 280 -342 120 -95 225 -142 429 -190 414 -99 578 -256 699 -666 61
-209 69 -257 73 -440 4 -254 -22 -408 -107 -620 -53 -132 -95 -206 -185 -325
-116 -154 -284 -294 -454 -380 -155 -78 -420 -161 -640 -199 -185 -32 -296
-41 -527 -41 -339 0 -518 22 -841 101 -540 133 -856 395 -1041 861 -128 325
-134 715 -15 1096 63 203 146 326 289 427 203 144 446 195 933 195 205 0 349
12 447 36 86 22 236 95 316 154 112 84 232 227 279 334 17 38 29 56 36 56 1 0
14 -26 29 -57z m-2533 -1222 c-30 -143 -45 -296 -46 -468 -1 -140 -4 -193 -13
-193 -21 0 -157 97 -212 152 -60 60 -114 159 -132 246 -13 63 -8 213 9 254
l11 27 193 -2 c158 -2 192 -5 190 -16z m4506 -15 c22 -46 26 -134 9 -217 -33
-158 -114 -289 -225 -363 -38 -25 -80 -50 -95 -55 l-26 -10 -1 186 c0 177 -11
320 -31 427 -5 27 -9 53 -9 58 0 5 81 7 182 6 l183 -3 13 -29z m-5913 -824
c15 -16 78 -117 140 -224 l113 -196 -37 -36 c-84 -82 -137 -216 -129 -328 6
-78 32 -113 83 -112 20 1 40 5 45 10 5 5 11 43 14 85 10 137 58 226 156 290
47 30 49 34 55 88 14 123 47 200 98 231 43 27 83 25 112 -4 42 -42 44 -117 10
-331 -27 -174 -23 -167 -225 -380 -31 -33 -101 -109 -155 -170 -140 -156 -307
-325 -322 -325 -25 0 -258 194 -373 309 -190 191 -280 356 -280 514 0 42 5 54
34 83 19 19 41 34 49 34 9 0 59 -64 113 -142 142 -209 159 -223 217 -178 56
44 47 76 -71 257 -127 195 -156 253 -148 296 9 49 45 78 95 79 22 0 52 -7 65
-16 21 -13 106 -149 212 -335 11 -19 33 -40 50 -47 26 -11 36 -10 65 4 55 28
58 58 15 138 -77 144 -155 310 -161 346 -6 31 -3 41 19 62 37 38 104 37 141
-2z m6818 -284 c63 -73 179 -196 258 -273 241 -235 403 -353 651 -474 l158
-76 0 -600 c0 -1080 -49 -1518 -236 -2113 -125 -396 -243 -632 -552 -1102
-132 -200 -347 -506 -363 -515 -35 -22 -548 675 -729 990 -319 555 -475 1049
-536 1698 -19 211 -29 817 -19 1278 l7 366 37 13 c74 26 299 141 397 203 204
129 375 283 654 590 74 81 140 147 147 147 6 0 63 -60 126 -132z m-1916 -710
c-16 -37 -48 -58 -222 -143 -364 -177 -965 -267 -1471 -220 -407 38 -679 103
-969 233 -151 67 -209 103 -213 131 -2 13 0 22 5 20 4 -2 64 -32 133 -66 253
-124 498 -197 833 -248 140 -21 601 -31 782 -16 435 35 825 147 1070 309 33
21 61 38 63 37 2 -2 -3 -18 -11 -37z m-4297 8 c0 -2 -8 -10 -17 -17 -16 -13
-17 -12 -4 4 13 16 21 21 21 13z m261 -23 c13 -16 12 -17 -3 -4 -10 7 -18 15
-18 17 0 8 8 3 21 -13z m-324 -48 c-7 -14 -16 -25 -20 -25 -8 0 -2 14 16 38
15 19 16 14 4 -13z m4658 -39 c40 -19 78 -43 84 -54 8 -15 11 -234 10 -729 0
-636 -2 -703 -15 -658 -27 94 -54 260 -62 388 -9 133 -15 150 -53 140 -42 -11
-49 -40 -49 -188 0 -182 18 -301 85 -572 30 -121 55 -225 55 -230 0 -6 -33
-27 -72 -48 -40 -20 -80 -43 -88 -50 -27 -22 -36 -24 -36 -7 -1 9 -6 118 -12
242 -13 252 -35 996 -35 1165 0 95 3 116 23 155 22 42 23 57 25 245 1 110 2
208 3 218 3 27 54 21 137 -17z m-4478 8 c-3 -3 -12 -4 -19 -1 -8 3 -5 6 6 6
11 1 17 -2 13 -5z m1154 -29 c4 -17 7 -112 8 -213 1 -176 2 -185 27 -234 25
-49 26 -55 20 -182 -3 -72 -8 -239 -11 -371 -11 -515 -29 -983 -37 -991 -4 -3
-45 19 -92 50 -46 31 -98 59 -115 62 -17 4 -31 9 -31 13 0 30 131 417 160 472
10 19 -3 93 -20 114 -7 8 -23 15 -36 15 -19 0 -30 -12 -54 -62 -47 -94 -45
-93 -163 -90 -323 8 -524 50 -731 154 -158 79 -376 234 -376 267 0 9 30 44 67
76 169 150 281 271 427 459 64 82 177 256 198 304 19 41 22 44 51 38 18 -3 75
-9 127 -12 127 -9 229 16 353 86 83 48 174 81 207 77 8 -1 18 -16 21 -32z
m-1301 -30 c-7 -9 -27 -25 -44 -37 -26 -18 -24 -15 9 18 39 38 61 50 35 19z
m4335 -67 c-2 -51 -4 -122 -4 -158 l-1 -65 -62 -57 c-33 -32 -67 -58 -73 -58
-15 0 -25 89 -25 230 l0 108 78 45 c42 25 80 45 83 46 4 1 5 -41 4 -91z
m-2790 24 l69 -37 -3 -155 c-1 -85 -4 -156 -6 -158 -4 -4 -94 42 -117 60 -15
11 -19 39 -24 171 -4 91 -3 157 2 157 5 0 40 -17 79 -38z m-1715 -15 c0 -2
-10 -12 -22 -23 l-23 -19 19 23 c18 21 26 27 26 19z m100 -11 c0 -2 -8 -10
-17 -17 -16 -13 -17 -12 -4 4 13 16 21 21 21 13z m200 -36 c-6 -11 -13 -20
-16 -20 -2 0 0 9 6 20 6 11 13 20 16 20 2 0 0 -9 -6 -20z m-70 -3 c0 -2 -10
-12 -22 -23 l-23 -19 19 23 c18 21 26 27 26 19z m-243 -29 c-3 -8 -6 -5 -6 6
-1 11 2 17 5 13 3 -3 4 -12 1 -19z m2088 -113 c35 -58 64 -95 74 -95 9 0 60
22 115 50 110 55 106 55 165 -12 18 -21 50 -52 71 -68 l39 -31 63 32 c35 17
75 40 90 51 l28 19 37 -30 c124 -101 156 -123 162 -115 3 5 38 38 78 73 l72
63 25 -18 c13 -11 49 -41 80 -68 63 -55 51 -57 146 27 79 72 84 73 161 39 36
-16 84 -41 106 -55 l40 -25 64 74 c35 40 70 76 78 79 14 5 164 -53 209 -82 13
-8 25 -13 26 -11 2 2 26 43 55 91 52 87 77 109 113 99 40 -10 30 -38 -53 -149
l-52 -68 69 -32 c38 -17 75 -32 83 -32 9 -1 11 -9 6 -28 -4 -16 -9 -30 -11
-33 -3 -2 -46 10 -95 28 -50 17 -95 29 -101 26 -5 -3 -41 -48 -79 -100 -39
-52 -77 -94 -85 -94 -21 0 -67 25 -153 83 l-73 49 -87 -86 c-47 -47 -89 -86
-92 -86 -3 0 -46 32 -95 70 -49 39 -94 70 -100 70 -6 0 -31 -17 -55 -38 -24
-21 -63 -52 -85 -70 l-41 -32 -81 70 c-44 39 -84 70 -87 70 -4 0 -41 -24 -83
-54 -107 -75 -117 -79 -144 -65 -13 6 -55 43 -94 81 l-72 70 -48 -33 c-52 -35
-182 -109 -194 -109 -3 0 -38 45 -76 100 -38 55 -74 102 -81 104 -7 3 -38 -6
-70 -18 -85 -35 -117 -40 -133 -22 -21 26 -6 40 79 75 44 18 81 35 81 36 0 2
-23 41 -51 87 -73 119 -75 126 -36 131 18 2 33 5 33 5 1 1 27 -41 59 -93z
m-1820 35 c-10 -11 -22 -20 -26 -20 -4 0 2 11 14 24 12 14 24 23 26 20 2 -2
-4 -13 -14 -24z m-208 -37 c-3 -10 -5 -4 -5 12 0 17 2 24 5 18 2 -7 2 -21 0
-30z m314 -16 c-10 -9 -11 -8 -5 6 3 10 9 15 12 12 3 -3 0 -11 -7 -18z m-301
-17 c0 -5 -12 -10 -27 -9 l-28 1 25 8 c14 4 26 8 28 9 1 1 2 -3 2 -9z m327
-15 c0 -8 -4 -12 -9 -9 -5 3 -6 10 -3 15 9 13 12 11 12 -6z m-628 -32 c-18
-20 -39 -43 -46 -50 -6 -7 -15 -13 -19 -13 -5 0 14 23 41 50 57 58 76 68 24
13z m81 -37 c0 -2 -8 -10 -17 -17 -16 -13 -17 -12 -4 4 13 16 21 21 21 13z
m-66 -32 c3 -8 2 -12 -4 -9 -6 3 -10 10 -10 16 0 14 7 11 14 -7z m17 -37 c-10
-9 -11 -8 -5 6 3 10 9 15 12 12 3 -3 0 -11 -7 -18z m269 14 c0 -5 -9 -7 -20
-4 -11 3 -20 7 -20 9 0 2 9 4 20 4 11 0 20 -4 20 -9z m-69 -72 c-13 -10 -31
-19 -40 -19 -9 0 -1 8 17 16 17 9 32 21 32 27 0 6 3 7 8 3 4 -4 -4 -16 -17
-27z m269 28 c0 -2 -10 -12 -22 -23 l-23 -19 19 23 c18 21 26 27 26 19z m-665
-41 c-9 -14 -13 -31 -9 -37 4 -8 3 -9 -4 -5 -16 10 -15 23 6 51 23 30 28 24 7
-9z m615 -20 c0 -2 -8 -10 -17 -17 -16 -13 -17 -12 -4 4 13 16 21 21 21 13z
m1538 -38 l55 -31 -6 -206 c-4 -113 -11 -402 -17 -641 -5 -239 -12 -483 -16
-542 l-6 -107 29 -29 c26 -27 38 -30 143 -41 567 -56 1499 -61 2000 -11 52 6
149 15 215 20 147 13 191 24 206 52 9 16 10 88 6 263 -4 132 -10 465 -13 740
l-6 500 54 32 53 32 6 -162 c4 -89 9 -297 13 -462 7 -289 18 -620 32 -907 4
-79 3 -138 -2 -138 -5 0 -49 -7 -99 -15 -120 -19 -387 -50 -620 -72 -268 -25
-1124 -25 -1425 0 -113 10 -261 22 -330 27 -166 13 -298 29 -336 41 -52 16
-57 39 -50 211 4 84 9 185 12 223 5 72 19 543 31 998 3 141 8 257 11 257 2 0
29 -14 60 -32z m-2131 -13 c8 -9 13 -18 11 -21 -3 -2 -13 5 -23 16 -21 23 -11
27 12 5z m420 -37 c-3 -8 -6 -5 -6 6 -1 11 2 17 5 13 3 -3 4 -12 1 -19z m-37
-8 c-8 -5 -19 -10 -25 -10 -5 0 -3 5 5 10 8 5 20 10 25 10 6 0 3 -5 -5 -10z
m-296 -46 c50 -57 42 -57 -14 1 -24 25 -40 45 -35 44 6 0 27 -21 49 -45z m126
10 c0 -2 -9 0 -20 6 -11 6 -20 13 -20 16 0 2 9 0 20 -6 11 -6 20 -13 20 -16z
m100 6 c-8 -5 -19 -10 -25 -10 -5 0 -3 5 5 10 8 5 20 10 25 10 6 0 3 -5 -5
-10z m4296 -500 c5 -239 9 -534 9 -654 l0 -220 -30 -7 c-38 -9 -351 -35 -593
-49 -229 -13 -876 -14 -1127 -1 -104 5 -260 12 -345 16 -218 8 -239 12 -246
42 -4 13 -4 113 -1 221 3 108 11 409 17 667 7 259 15 473 19 476 3 4 48 -4
100 -17 127 -32 288 -59 511 -84 246 -28 846 -31 1065 -6 237 28 438 67 545
105 l55 20 6 -37 c4 -20 11 -233 15 -472z m-4146 476 c0 -2 -8 -10 -17 -17
-16 -13 -17 -12 -4 4 13 16 21 21 21 13z m-40 -34 c0 -5 -7 -9 -15 -9 -8 0
-12 4 -9 9 3 4 9 8 15 8 5 0 9 -4 9 -8z m-70 -22 c6 -11 8 -20 6 -20 -3 0 -10
9 -16 20 -6 11 -8 20 -6 20 3 0 10 -9 16 -20z m-140 -65 c19 -19 32 -35 29
-35 -3 0 -20 16 -39 35 -19 19 -32 35 -29 35 3 0 20 -16 39 -35z m110 1 c0 -2
-8 -10 -17 -17 -16 -13 -17 -12 -4 4 13 16 21 21 21 13z m-45 -36 c-3 -5 -12
-10 -18 -10 -7 0 -6 4 3 10 19 12 23 12 15 0z m1390 -1144 c69 -32 108 -67
149 -135 31 -51 36 -67 37 -129 2 -79 9 -92 71 -111 37 -12 58 -16 268 -46 89
-13 548 -48 735 -56 45 -3 69 -9 96 -29 47 -33 126 -122 168 -188 41 -65 37
-77 -54 -151 -66 -53 -147 -95 -209 -106 -83 -16 -193 49 -220 129 -42 123 96
246 196 175 17 -12 27 -27 24 -35 -3 -8 0 -13 6 -11 16 3 33 -52 20 -65 -20
-20 -61 -11 -98 21 -34 30 -37 31 -50 14 -7 -10 -14 -41 -14 -70 0 -44 4 -55
26 -72 38 -30 104 -37 145 -15 40 20 54 35 79 89 29 60 26 104 -12 161 -44 65
-108 97 -192 98 -79 0 -125 -16 -171 -62 -45 -45 -70 -92 -80 -150 -4 -23 -11
-40 -16 -36 -5 3 -38 46 -73 96 -65 92 -131 155 -198 189 -89 45 -279 64 -361
35 -49 -18 -128 -73 -197 -137 -103 -96 -198 -138 -284 -125 -67 10 -59 34 20
56 141 40 233 108 273 201 60 138 -5 336 -129 399 -47 24 -52 32 -44 65 8 31
25 31 89 1z m3583 -37 c2 -19 -8 -37 -40 -69 -24 -24 -49 -43 -55 -42 -7 2
-13 -2 -13 -8 0 -6 5 -8 10 -5 13 8 13 8 -10 -56 -11 -32 -20 -90 -22 -135 -3
-69 0 -86 23 -129 30 -60 92 -110 207 -167 68 -34 82 -45 82 -65 0 -19 -4 -22
-22 -19 -13 3 -47 10 -76 16 -64 12 -133 56 -232 149 -113 106 -139 116 -290
115 -166 0 -218 -19 -310 -113 -36 -36 -69 -64 -75 -63 -5 2 -7 0 -3 -3 8 -9
-33 -71 -86 -130 -27 -31 -35 -36 -36 -22 -1 42 -33 128 -61 164 -50 62 -93
83 -175 83 -93 0 -148 -27 -181 -90 -27 -51 -31 -136 -8 -179 20 -40 95 -75
140 -67 70 13 109 102 65 146 -21 21 -25 21 -74 -13 -27 -19 -29 -19 -42 -3
-14 19 -5 55 22 91 21 28 92 27 131 -1 66 -48 82 -155 33 -224 -30 -43 -109
-79 -158 -73 -101 12 -161 45 -251 137 -48 49 -53 58 -44 78 17 38 98 140 156
196 l54 53 164 14 c90 7 232 18 314 25 251 18 515 60 612 96 47 18 53 31 53
124 0 60 3 68 40 115 75 95 151 131 158 74z m-3615 -201 c51 -63 46 -182 -10
-248 -31 -37 -48 -45 -122 -55 l-54 -7 7 38 c8 42 74 320 82 343 5 17 55 -19
97 -71z m3675 30 c6 -24 14 -59 18 -78 3 -19 17 -81 30 -138 14 -56 22 -107
19 -112 -9 -15 -67 8 -102 42 -72 70 -81 191 -21 280 18 26 36 48 39 48 4 0
11 -19 17 -42z m-1571 -288 c2 0 -24 -36 -56 -80 -32 -43 -61 -85 -64 -92 -3
-8 -27 8 -68 47 -103 97 -96 97 -175 8 l-68 -76 -16 24 c-8 13 -43 59 -78 103
l-63 78 293 -6 c161 -3 294 -6 295 -6z m-1602 -55 c119 -13 180 -58 286 -211
40 -58 83 -114 96 -124 15 -11 22 -24 17 -31 -4 -7 -3 -9 3 -6 6 4 34 -8 62
-27 95 -64 225 -102 325 -94 83 7 214 72 299 149 l65 59 25 -43 c34 -57 119
-147 139 -147 9 0 47 42 85 94 37 52 73 95 80 95 14 1 35 -33 28 -43 -3 -3 -2
-4 1 -1 4 2 33 -16 65 -41 32 -25 89 -59 126 -77 63 -30 75 -32 168 -31 78 0
112 5 156 22 111 44 240 150 311 256 57 86 126 154 178 177 70 31 179 45 242
30 131 -30 189 -146 107 -215 -33 -28 -69 -27 -99 0 -12 12 -12 18 4 45 20 34
15 96 -9 105 -15 6 -85 -27 -104 -50 -9 -10 -30 -16 -60 -16 -25 0 -63 -5 -84
-11 -45 -12 -117 -74 -117 -100 0 -20 20 -69 29 -70 3 0 20 -1 38 -2 26 -2 30
1 22 15 -5 9 -9 21 -9 27 0 16 72 49 95 44 11 -2 36 -4 55 -5 24 -1 47 -12 71
-33 49 -44 118 -69 164 -61 20 4 52 22 72 40 30 27 36 40 42 91 l6 59 18 -28
c10 -15 37 -39 61 -54 23 -15 43 -31 44 -36 4 -12 -282 -134 -355 -151 -67
-16 -320 -56 -468 -74 -49 -7 -117 -16 -150 -21 -218 -34 -343 -39 -885 -34
-283 2 -524 6 -535 8 -11 2 -56 7 -100 10 -44 4 -107 11 -140 16 -33 4 -91 11
-130 15 -76 7 -263 36 -390 62 -182 36 -474 138 -482 168 -3 10 100 75 118 75
5 0 17 -17 28 -37 35 -69 112 -113 196 -113 58 0 84 11 131 56 35 33 46 38 99
42 57 4 62 2 103 -33 68 -59 103 -28 57 51 -37 63 -93 88 -175 79 -53 -6 -59
-5 -65 14 -7 23 -53 51 -83 51 -22 0 -47 -26 -55 -58 -4 -17 3 -33 25 -57 16
-19 27 -39 23 -45 -9 -15 -57 -12 -98 5 -32 13 -37 20 -47 70 -13 64 -11 70
56 116 44 30 104 49 139 43 11 -1 47 -6 80 -9z m1370 -164 l42 -38 -44 -53
c-23 -28 -43 -56 -43 -61 0 -21 -21 -6 -54 41 -20 28 -36 53 -36 57 0 8 81 93
88 93 3 0 24 -17 47 -39z m-1823 -244 c186 -69 318 -104 485 -131 362 -59 511
-72 973 -86 629 -20 913 -5 1481 75 293 42 487 99 744 219 73 34 91 39 92 27
1 -9 4 -25 7 -36 6 -17 -7 -27 -96 -69 -232 -110 -445 -168 -890 -242 -298
-49 -1020 -77 -1403 -55 -110 7 -240 14 -290 17 -90 4 -143 10 -390 40 -252
30 -488 83 -665 149 -144 53 -369 167 -369 187 -2 46 8 46 102 -1 51 -26 149
-68 219 -94z m-220 -113 c24 -42 53 -88 64 -102 l21 -26 94 48 94 48 25 -33
c46 -61 145 -164 155 -161 6 1 46 21 91 44 l81 42 30 -24 c16 -14 54 -58 84
-98 30 -41 64 -84 76 -96 l22 -22 -87 -51 c-48 -28 -108 -62 -134 -74 -68 -33
-90 -22 -155 76 -29 44 -59 81 -67 83 -8 2 -43 -11 -77 -29 -89 -44 -131 -58
-155 -49 -12 5 -38 41 -63 89 -23 45 -46 81 -51 81 -5 0 -31 -5 -59 -12 -38
-9 -60 -9 -89 0 -78 24 -117 78 -73 101 14 8 23 6 37 -10 22 -25 75 -22 117 6
l27 17 -27 47 c-14 25 -32 56 -40 69 l-14 23 -44 -25 c-54 -32 -57 -32 -49 2
12 47 33 81 62 96 48 27 59 21 104 -60z m4036 44 c2 -9 -17 -59 -42 -111 -25
-52 -46 -100 -46 -105 0 -11 57 -36 108 -47 37 -8 38 -11 13 -45 l-20 -25 -67
23 c-78 25 -64 34 -124 -82 -19 -38 -47 -78 -62 -89 l-26 -20 -69 45 c-81 54
-107 68 -125 68 -8 0 -44 -43 -82 -95 -37 -52 -72 -95 -78 -95 -5 0 -50 24
-99 54 -49 29 -105 57 -125 60 -28 6 -34 11 -29 24 8 22 114 192 133 215 22
25 58 21 147 -19 44 -19 85 -37 90 -40 6 -2 19 11 29 30 10 20 40 59 66 88
l47 52 89 -31 c49 -17 96 -34 104 -37 11 -5 24 13 50 66 52 110 109 165 118
116z m-2424 -340 c67 -26 177 -104 281 -199 48 -43 91 -79 95 -79 5 0 23 17
42 39 42 49 217 180 304 227 117 65 230 47 349 -56 153 -133 239 -143 323 -39
l24 29 -54 24 c-46 21 -60 22 -113 15 -41 -6 -67 -5 -82 3 -30 15 -29 24 3 45
59 39 230 10 301 -51 31 -27 27 -57 -11 -104 -33 -38 -133 -91 -189 -98 -61
-9 -131 25 -224 109 -83 73 -155 103 -225 94 -59 -8 -210 -114 -361 -254 -37
-35 -75 -63 -83 -63 -9 0 -58 35 -109 78 -200 167 -254 205 -323 227 -76 25
-121 10 -246 -84 -126 -94 -161 -111 -227 -111 -66 0 -126 28 -173 81 -48 53
-51 87 -10 130 41 43 113 62 211 56 47 -3 89 -9 95 -15 16 -16 -10 -55 -30
-46 -9 4 -42 9 -73 11 -43 4 -65 1 -97 -16 -23 -12 -42 -28 -42 -35 0 -26 50
-75 86 -85 57 -16 106 5 230 97 137 102 209 117 328 70z m446 -16 l54 -49 -17
-27 -18 -27 -45 37 -44 37 -47 -37 c-44 -34 -47 -35 -65 -19 -18 16 -16 19 44
74 35 32 68 58 74 59 5 0 35 -22 64 -48z m536 -207 c-22 -33 -93 -73 -147 -83
-62 -11 -142 4 -168 32 -19 20 -19 24 -5 44 l15 22 37 -20 c55 -30 116 -26
172 10 26 17 55 39 66 51 l18 20 14 -26 c11 -23 11 -30 -2 -50z m-1138 13 c59
-40 138 -50 189 -23 32 18 34 18 48 -1 20 -27 19 -30 -17 -52 -50 -30 -109
-36 -168 -17 -56 19 -148 95 -136 113 12 19 35 14 84 -20z m2036 -255 c4 -38
9 -78 13 -90 5 -22 3 -23 -79 -23 -287 0 -553 -199 -371 -278 40 -17 49 -18
60 -6 27 26 152 96 199 110 26 8 88 14 138 14 l91 0 19 -64 c21 -76 42 -97
116 -121 218 -70 407 -184 468 -284 59 -95 122 -86 -638 -89 -368 -1 -701 -4
-740 -7 -66 -5 -70 -4 -74 17 -9 41 -45 280 -67 438 -11 85 -27 189 -35 230
-23 125 -34 114 119 128 72 7 231 26 352 42 329 44 357 47 391 49 l31 1 7 -67z
m-2829 38 c44 -6 116 -15 160 -21 194 -26 428 -49 509 -50 l29 0 -6 -117 c-6
-101 -26 -316 -41 -433 -3 -19 -10 -83 -17 -142 l-12 -107 -721 -1 c-397 -1
-728 -1 -736 -2 -60 -5 -65 21 -19 94 73 113 197 191 424 267 135 45 159 63
169 134 4 25 13 51 21 57 18 15 145 15 208 1 55 -13 100 -36 172 -87 42 -30
56 -35 85 -30 59 10 77 60 44 129 -41 85 -294 179 -440 164 -40 -4 -54 -2 -54
7 0 15 20 124 26 145 5 14 13 14 199 -8z m1330 -74 c127 1 275 5 331 8 l101 7
12 -119 c19 -192 62 -626 64 -658 l2 -30 -517 -3 -518 -2 0 37 c0 21 9 137 20
258 11 121 25 287 32 368 l11 149 116 -8 c64 -4 220 -7 346 -7z"/>
<path d="M4705 8030 c-3 -5 -1 -10 4 -10 6 0 11 5 11 10 0 6 -2 10 -4 10 -3 0
-8 -4 -11 -10z"/>
<path d="M4216 7953 c-6 -14 -5 -15 5 -6 7 7 10 15 7 18 -3 3 -9 -2 -12 -12z"/>
<path d="M4171 7951 c-1 -8 -8 -11 -18 -7 -15 5 -14 3 2 -9 20 -16 31 -7 22
18 -4 9 -6 9 -6 -2z"/>
<path d="M4740 7940 c0 -5 5 -10 11 -10 5 0 7 5 4 10 -3 6 -8 10 -11 10 -2 0
-4 -4 -4 -10z"/>
<path d="M4468 7903 c7 -3 16 -2 19 1 4 3 -2 6 -13 5 -11 0 -14 -3 -6 -6z"/>
<path d="M4190 7871 c0 -6 4 -13 10 -16 6 -3 7 1 4 9 -7 18 -14 21 -14 7z"/>
<path d="M4252 7830 c0 -14 2 -19 5 -12 2 6 2 18 0 25 -3 6 -5 1 -5 -13z"/>
<path d="M4066 7785 c-9 -26 -7 -32 5 -12 6 10 9 21 6 23 -2 3 -7 -2 -11 -11z"/>
<path d="M4732 7755 c15 -16 20 -17 30 -6 11 11 10 13 0 7 -7 -4 -21 -2 -30 5
-15 12 -15 11 0 -6z"/>
<path d="M4398 7753 c7 -3 16 -2 19 1 4 3 -2 6 -13 5 -11 0 -14 -3 -6 -6z"/>
<path d="M3864 7732 c3 -5 1 -12 -6 -14 -8 -3 -6 -7 5 -11 20 -7 24 17 5 29
-6 4 -8 3 -4 -4z"/>
<path d="M4842 7715 c0 -16 2 -22 5 -12 2 9 2 23 0 30 -3 6 -5 -1 -5 -18z"/>
<path d="M4775 7710 c3 -5 8 -10 11 -10 2 0 4 5 4 10 0 6 -5 10 -11 10 -5 0
-7 -4 -4 -10z"/>
<path d="M4724 7670 c0 -13 4 -16 10 -10 7 7 7 13 0 20 -6 6 -10 3 -10 -10z"/>
<path d="M4215 7650 c21 -24 26 -25 19 -6 -3 8 -13 17 -22 21 -13 5 -13 2 3
-15z"/>
<path d="M4350 7639 c0 -5 5 -7 10 -4 6 3 10 8 10 11 0 2 -4 4 -10 4 -5 0 -10
-5 -10 -11z"/>
<path d="M6280 7859 c0 -5 5 -7 12 -3 8 5 9 1 4 -12 -5 -14 -4 -16 5 -7 6 6 8
16 5 22 -9 14 -26 14 -26 0z"/>
<path d="M6080 7836 c0 -2 8 -10 18 -17 15 -13 16 -12 3 4 -13 16 -21 21 -21
13z"/>
<path d="M5950 7800 c-9 -6 -10 -10 -3 -10 6 0 15 5 18 10 8 12 4 12 -15 0z"/>
<path d="M6275 7790 c-3 -5 -1 -10 4 -10 6 0 11 5 11 10 0 6 -2 10 -4 10 -3 0
-8 -4 -11 -10z"/>
<path d="M6025 7779 c-4 -6 -5 -12 -2 -15 2 -3 7 2 10 11 7 17 1 20 -8 4z"/>
<path d="M6330 7760 c-6 -11 -8 -20 -6 -20 3 0 10 9 16 20 6 11 8 20 6 20 -3
0 -10 -9 -16 -20z"/>
<path d="M6102 7754 c-7 -8 -8 -14 -3 -14 10 0 25 19 20 25 -2 1 -10 -3 -17
-11z"/>
<path d="M6295 7720 c3 -5 8 -10 11 -10 2 0 4 5 4 10 0 6 -5 10 -11 10 -5 0
-7 -4 -4 -10z"/>
<path d="M4035 7284 c-11 -2 -45 -9 -75 -15 -140 -28 -308 -162 -382 -304
-160 -308 -90 -640 177 -839 121 -91 314 -133 465 -102 211 44 369 182 458
398 20 50 26 85 30 168 13 318 -170 589 -456 674 -55 16 -182 28 -217 20z
m186 -152 c369 -97 501 -591 232 -873 -147 -154 -373 -190 -580 -93 -119 56
-229 201 -258 341 -29 134 -16 230 46 361 106 221 326 325 560 264z"/>
<path d="M4045 6911 c-48 -22 -100 -79 -129 -140 -16 -37 -21 -66 -21 -146 0
-89 3 -107 29 -163 90 -195 307 -206 402 -20 72 141 48 334 -53 430 -60 58
-153 74 -228 39z"/>
<path d="M5953 7265 c-171 -48 -315 -164 -391 -316 -160 -319 -80 -663 198
-844 93 -61 169 -86 276 -92 160 -10 273 21 398 107 177 122 266 302 266 537
0 104 -19 183 -70 289 -65 136 -207 259 -350 305 -85 28 -253 35 -327 14z
m270 -141 c87 -22 148 -56 210 -116 64 -63 98 -120 133 -219 23 -66 26 -85 22
-179 -4 -88 -10 -119 -38 -190 -29 -75 -42 -94 -109 -161 -117 -117 -214 -154
-384 -147 -82 3 -101 7 -170 40 -81 39 -172 115 -212 178 -12 20 -35 69 -51
110 -25 66 -28 88 -28 185 1 128 19 187 90 296 56 85 110 134 189 170 106 50
236 62 348 33z"/>
<path d="M5975 6904 c-97 -53 -154 -183 -142 -321 11 -116 71 -217 152 -254
147 -68 300 51 321 251 12 117 -37 249 -113 307 -31 24 -47 28 -112 31 -55 2
-84 -2 -106 -14z"/>
<path d="M5020 6514 c-73 -20 -122 -55 -161 -115 -97 -152 -88 -331 22 -423
132 -112 314 -112 438 0 50 45 71 88 85 176 8 45 -15 162 -42 214 -63 122
-208 185 -342 148z m150 -166 c49 -34 75 -91 75 -164 0 -48 -5 -67 -20 -84
-48 -54 -146 -66 -206 -26 -68 47 -87 127 -46 206 42 85 129 114 197 68z"/>
<path d="M3795 5960 c-99 -14 -182 -76 -232 -173 -23 -44 -27 -65 -28 -137 0
-73 4 -93 28 -142 36 -74 112 -143 180 -163 118 -35 241 -10 330 66 68 59 90
106 95 210 5 96 -4 133 -48 202 -62 99 -196 155 -325 137z"/>
<path d="M6205 5932 c-68 -34 -123 -86 -157 -152 -19 -38 -23 -60 -23 -140 0
-79 4 -102 23 -137 35 -67 79 -110 144 -143 77 -38 176 -42 263 -9 65 24 157
104 187 163 51 101 30 248 -49 336 -64 72 -135 103 -242 108 -79 3 -91 1 -146
-26z"/>
<path d="M5540 5769 c-74 -56 -173 -104 -267 -131 -106 -31 -267 -30 -369 1
-85 25 -172 70 -238 122 -38 30 -57 39 -88 39 -79 0 -114 -78 -62 -139 52 -62
260 -164 401 -197 207 -48 505 16 704 150 91 61 111 116 60 167 -41 41 -75 38
-141 -12z"/>
<path d="M8285 5536 c-147 -205 -417 -465 -640 -616 -94 -63 -260 -151 -342
-180 l-62 -22 -4 -112 c-2 -61 -3 -392 -2 -736 3 -642 6 -705 50 -1015 22
-155 47 -270 95 -436 127 -445 248 -702 521 -1110 127 -191 317 -445 391 -525
l67 -73 94 127 c274 373 507 778 629 1096 101 263 126 350 182 621 96 463 101
535 101 1493 l0 674 -85 36 c-109 47 -176 85 -314 180 -192 131 -351 273 -556
500 -56 61 -105 112 -108 112 -4 0 -12 -6 -17 -14z m72 -327 c43 -16 92 -69
103 -111 11 -40 0 -141 -19 -177 -20 -37 -11 -40 42 -16 28 13 73 27 99 30 75
11 158 -24 158 -67 0 -20 0 -20 -149 -18 -81 1 -100 -2 -146 -24 -43 -22 -220
-165 -212 -172 1 -2 24 2 51 8 65 14 147 -4 187 -40 42 -38 27 -58 -27 -36
-55 23 -215 15 -273 -13 l-41 -20 0 51 c0 144 -61 226 -197 266 -49 15 -51 20
-22 46 15 13 36 19 73 19 104 0 185 -75 194 -180 2 -30 8 -55 11 -55 14 0 107
112 143 171 65 108 68 190 9 243 -29 26 -71 12 -84 -27 -7 -23 -5 -33 12 -51
25 -27 26 -34 4 -58 -53 -59 -132 38 -103 127 6 19 32 53 57 75 48 42 78 49
130 29z m-485 -408 c48 -20 68 -51 68 -105 0 -35 -50 -208 -71 -248 -11 -21
-11 -22 5 -9 11 9 44 14 99 14 71 1 92 -3 157 -31 169 -72 271 -239 275 -452
3 -110 -10 -259 -29 -342 -7 -32 -12 -58 -10 -58 2 0 11 15 20 33 9 17 39 60
65 93 121 153 169 265 169 397 0 102 -27 165 -105 243 -56 57 -112 80 -217 92
l-63 7 27 19 c18 12 53 20 105 23 65 4 86 1 127 -16 140 -61 209 -178 210
-357 l1 -90 133 98 c177 131 188 142 212 205 24 64 27 177 6 227 -25 61 -77
102 -145 115 -75 15 -117 7 -153 -27 -23 -21 -28 -35 -28 -71 0 -53 21 -81 61
-81 38 0 106 28 113 46 3 8 11 14 18 14 15 0 48 -54 48 -79 0 -52 -80 -101
-165 -101 -72 0 -111 17 -157 69 -37 40 -38 43 -38 117 0 45 6 86 14 102 36
69 122 112 225 112 95 0 152 -22 221 -87 75 -69 95 -118 95 -233 0 -84 0 -86
-46 -155 -51 -78 -69 -110 -69 -122 0 -4 28 -8 63 -8 87 0 112 -9 127 -45 11
-26 10 -33 -4 -49 -24 -26 -63 -31 -119 -17 -51 13 -166 1 -246 -25 -44 -15
-169 -107 -199 -149 -24 -31 -20 -40 7 -17 30 26 102 47 159 47 32 0 63 5 70
12 7 7 43 12 89 12 62 0 87 -5 123 -23 95 -49 125 -106 80 -151 -29 -29 -98
-26 -200 11 -99 35 -209 48 -263 30 -98 -33 -229 -158 -336 -320 -107 -163
-126 -227 -126 -436 0 -123 4 -175 18 -222 18 -65 91 -226 83 -184 -15 75 66
332 142 451 l49 77 -33 18 c-18 10 -43 28 -55 41 -21 22 -21 25 -5 48 26 41
72 44 160 10 7 -3 23 3 36 14 l22 18 -31 34 c-35 39 -46 80 -38 146 9 79 72
119 116 75 19 -19 29 -46 49 -131 l9 -35 29 54 c52 96 129 150 199 137 62 -12
60 -58 -6 -124 -23 -22 -63 -49 -89 -58 -25 -9 -70 -34 -99 -54 l-53 -38 52
-11 c77 -17 105 -37 184 -136 87 -110 87 -110 80 -129 -7 -19 -96 -23 -138 -6
-23 8 -80 79 -131 162 -22 36 -78 59 -97 40 -9 -9 -7 -16 5 -29 27 -31 39 -75
38 -143 -1 -53 -5 -68 -22 -82 -40 -34 -85 17 -97 109 l-7 57 -36 -60 c-104
-169 -128 -256 -136 -479 -5 -133 -2 -176 13 -250 14 -66 19 -130 18 -243 0
-105 3 -147 10 -135 5 10 38 56 74 101 100 131 105 141 88 188 -8 21 -23 59
-35 84 -26 57 -26 70 -1 70 62 0 118 -79 108 -150 -3 -16 0 -30 5 -30 5 0 47
38 93 84 109 109 139 169 132 266 -3 42 -13 81 -25 102 -24 42 -87 78 -136 78
-76 0 -130 -59 -103 -111 14 -26 15 -26 63 -7 28 10 35 10 52 -7 55 -49 2
-115 -92 -115 -42 0 -54 5 -82 33 -135 135 21 341 223 295 73 -16 129 -60 165
-128 27 -52 29 -61 24 -143 -8 -146 -32 -184 -265 -415 -107 -106 -193 -195
-190 -197 2 -3 27 6 54 19 130 62 196 67 234 19 53 -68 11 -95 -163 -103
l-130 -6 -43 -48 c-24 -26 -53 -69 -65 -94 -31 -69 -87 -233 -94 -278 -3 -22
-8 -49 -11 -62 -4 -22 -4 -22 19 -8 39 26 132 54 161 49 17 -4 28 -14 32 -29
8 -30 0 -40 -47 -65 -55 -28 -119 -88 -136 -126 -7 -18 -13 -61 -13 -96 0 -68
-18 -104 -62 -128 -30 -16 -37 -2 -48 95 -16 138 -64 215 -169 270 -57 30 -71
42 -71 60 0 62 127 42 212 -33 l35 -31 13 144 c17 200 1 267 -82 345 -50 48
-93 65 -163 65 -106 0 -167 -63 -144 -149 9 -32 13 -35 48 -35 24 0 48 8 65
21 26 20 28 20 46 4 43 -38 10 -115 -56 -131 -34 -9 -107 10 -146 37 -36 26
-54 61 -63 121 -9 60 7 110 50 153 l33 33 -39 6 c-54 9 -140 49 -167 78 -12
14 -27 40 -32 59 -9 30 -8 36 12 53 47 38 141 2 260 -100 42 -36 56 -42 111
-47 85 -8 160 -32 197 -63 16 -14 30 -22 30 -18 0 20 -87 152 -126 191 -62 62
-182 137 -277 173 -258 99 -349 186 -379 359 -14 84 -1 156 41 223 22 34 41
50 91 72 76 35 129 32 217 -11 69 -34 123 -104 123 -159 0 -91 -79 -184 -155
-184 -95 0 -141 119 -59 151 22 8 31 6 49 -11 12 -11 27 -20 33 -20 14 0 25
38 20 75 -6 56 -108 98 -171 71 -37 -15 -84 -66 -93 -100 -8 -33 12 -133 37
-180 47 -90 74 -113 216 -182 74 -36 152 -76 174 -89 43 -27 57 -32 41 -12
-20 24 -42 122 -42 187 0 81 19 115 59 105 46 -12 54 -25 45 -75 -13 -80 -7
-168 16 -214 11 -24 52 -79 91 -122 89 -101 151 -220 157 -305 6 -78 19 -84
28 -12 18 147 -15 369 -82 548 -33 86 -179 365 -242 460 -97 146 -238 258
-360 286 -66 16 -133 -3 -218 -61 -33 -22 -62 -36 -67 -31 -12 12 -11 90 1
122 17 42 61 87 98 99 72 24 215 -16 323 -90 39 -27 71 -46 71 -42 0 17 -63
115 -95 146 -27 28 -56 42 -137 66 -148 45 -172 57 -231 119 -117 122 -94 209
52 199 111 -8 140 -30 232 -178 63 -102 134 -190 125 -155 -34 128 -47 242
-32 279 29 70 130 125 199 110 43 -9 65 -30 73 -69 7 -42 -5 -66 -72 -136 -61
-64 -68 -89 -63 -211 4 -79 7 -89 71 -218 37 -74 77 -146 88 -160 l20 -25 0
101 c0 112 14 200 65 404 54 216 68 306 68 430 0 194 -31 287 -127 384 -30 29
-79 66 -110 81 -52 26 -63 27 -144 23 -48 -3 -106 -13 -130 -23 -55 -22 -145
-121 -183 -200 -52 -108 -34 -255 39 -315 l36 -29 -40 5 c-112 16 -162 186
-118 400 18 89 13 187 -13 242 -9 18 -35 48 -59 65 -76 56 -68 97 18 97 52 0
92 -16 121 -48 26 -28 49 -154 41 -221 l-6 -56 20 20 c33 33 130 217 142 269
9 42 8 59 -11 122 -24 80 -21 100 13 114 32 12 31 12 80 -9z m126 -586 c59
-18 127 -66 159 -114 32 -48 64 -140 61 -174 -3 -30 -3 -30 -73 43 -38 40 -86
89 -105 109 -50 51 -88 65 -155 56 -63 -7 -109 -44 -120 -95 -15 -68 33 -107
86 -69 67 48 113 -17 56 -79 -52 -56 -123 -63 -189 -18 -92 62 -57 273 52 318
103 43 145 47 228 23z m1154 -871 c56 -29 60 -82 8 -104 -39 -16 -91 -6 -170
35 l-65 34 44 1 c34 0 51 7 78 30 36 32 48 33 105 4z m-416 -1615 c38 -23 44
-51 18 -87 -13 -19 -23 -23 -62 -20 l-47 3 -3 49 c-2 27 -1 55 2 62 8 20 54
17 92 -7z"/>
<path d="M3260 4669 c-26 -5 -53 -18 -63 -30 -53 -65 -17 -142 40 -85 30 30
40 32 70 11 36 -25 39 -75 9 -137 -14 -29 -33 -64 -43 -77 -18 -24 -18 -25 7
-18 14 4 33 7 42 7 22 0 85 55 104 91 38 75 -6 192 -88 235 -15 8 -28 14 -30
13 -2 -1 -23 -5 -48 -10z"/>
<path d="M2891 4521 c-48 -13 -113 -62 -133 -102 -33 -65 8 -149 72 -149 18 0
33 8 43 24 15 22 15 26 -4 50 -16 20 -18 30 -9 45 39 75 154 31 210 -79 11
-22 20 -41 20 -43 0 -11 -114 -59 -150 -64 -47 -7 -36 -22 15 -23 23 0 27 -3
15 -10 -13 -8 -13 -10 1 -10 9 0 31 -7 49 -17 31 -15 36 -15 63 0 41 24 47 21
42 -18 -2 -19 0 -35 5 -35 9 0 25 -78 17 -86 -3 -3 -33 21 -67 53 -112 104
-208 144 -346 145 -84 1 -96 -2 -153 -32 -241 -129 -250 -464 -13 -544 93 -32
215 -8 259 52 68 92 49 213 -41 256 -82 39 -168 12 -174 -53 -6 -57 41 -89 84
-56 25 19 31 19 44 -5 8 -14 7 -29 -4 -54 -14 -34 -25 -41 -79 -50 -40 -7
-106 47 -131 107 -18 42 -19 53 -8 95 14 52 44 98 62 94 6 -1 9 2 6 6 -18 29
99 81 180 82 85 0 185 -51 250 -127 l46 -53 -20 -33 c-30 -52 -64 -163 -64
-213 0 -32 8 -57 26 -85 32 -48 59 -65 116 -73 24 -4 47 -12 51 -18 5 -7 18
-7 45 2 65 20 81 58 44 98 -18 19 -27 21 -75 16 -42 -5 -60 -3 -79 10 -48 31
-50 50 -20 137 15 43 32 79 38 79 6 0 35 -23 64 -50 29 -27 65 -53 79 -56 41
-11 77 14 84 58 3 21 3 35 0 33 -12 -7 -50 20 -107 75 l-56 54 68 63 c38 34
75 63 81 63 25 0 93 72 103 108 8 31 7 40 -9 55 -16 17 -23 17 -60 6 -23 -7
-52 -25 -65 -39 -21 -26 -65 -55 -70 -48 -8 10 -26 100 -21 108 3 5 1 17 -4
27 -5 10 -21 43 -35 73 -13 30 -36 68 -50 83 -50 54 -161 86 -235 68z"/>
<path d="M3206 4483 c-6 -14 -5 -15 5 -6 7 7 10 15 7 18 -3 3 -9 -2 -12 -12z"/>
<path d="M3460 3499 c0 -5 5 -7 10 -4 6 3 10 8 10 11 0 2 -4 4 -10 4 -5 0 -10
-5 -10 -11z"/>
<path d="M4283 4394 l-62 -35 41 -62 c23 -34 45 -66 49 -71 7 -8 48 13 141 71
l38 23 -23 26 c-44 53 -82 84 -102 84 -11 -1 -48 -17 -82 -36z"/>
<path d="M5770 4374 l-52 -55 46 -29 c55 -35 102 -60 114 -60 9 0 106 129 101
134 -12 11 -131 66 -142 66 -8 0 -38 -25 -67 -56z"/>
<path d="M5403 4361 c-41 -31 -79 -69 -72 -75 33 -29 134 -96 144 -96 8 0 38
28 68 62 l55 61 -36 19 c-21 10 -56 27 -79 38 l-42 18 -38 -27z"/>
<path d="M4697 4342 c-42 -19 -77 -41 -77 -47 0 -20 109 -117 123 -109 16 10
87 60 110 78 18 14 18 16 -10 51 -52 66 -58 67 -146 27z"/>
<path d="M5043 4329 c-29 -22 -53 -42 -53 -44 0 -2 27 -25 60 -50 l60 -46 50
43 c27 24 50 46 50 50 0 10 -93 88 -105 88 -5 0 -34 -18 -62 -41z"/>
<path d="M5814 3827 c-190 -161 -232 -199 -237 -216 -2 -10 -5 -124 -6 -253
l-2 -235 145 -122 c94 -79 150 -120 158 -115 14 8 186 150 252 207 l39 34 -6
239 c-3 132 -8 249 -12 260 -4 12 -48 57 -98 100 -50 44 -106 96 -125 116 -20
21 -38 38 -41 37 -3 0 -34 -23 -67 -52z m140 -258 c26 -30 26 -32 26 -205 l0
-174 -61 -44 -62 -45 -48 37 c-26 20 -52 47 -58 60 -7 13 -11 89 -11 181 l0
158 66 51 67 51 28 -19 c15 -11 39 -34 53 -51z"/>
<path d="M4108 3862 l-36 -3 -4 -60 c-5 -91 1 -99 67 -99 l56 0 -6 -32 c-3
-18 -19 -132 -35 -253 -42 -306 -30 -275 -101 -275 l-59 0 0 -170 0 -170 80 0
80 0 0 85 0 85 220 0 220 0 0 -80 0 -80 80 0 80 0 0 171 0 171 -45 -4 -45 -3
0 277 0 278 35 0 36 0 -3 78 -3 77 -290 5 c-159 3 -306 4 -327 2z m379 -319
c-4 -87 -7 -213 -7 -280 l0 -123 -105 0 c-85 0 -105 3 -105 14 0 8 11 79 24
158 14 79 32 195 41 258 9 63 19 118 22 123 2 4 34 7 70 7 l66 0 -6 -157z"/>
<path d="M4795 3808 c12 -29 66 -143 120 -253 100 -207 155 -328 155 -341 0
-4 -36 -80 -80 -168 -44 -89 -80 -167 -80 -173 0 -9 51 -13 180 -15 99 -2 180
-2 180 0 0 1 -18 41 -39 89 l-39 87 67 135 c38 75 83 168 101 206 18 39 77
162 131 274 55 112 99 206 99 207 0 2 -82 4 -181 4 l-181 0 6 -22 c3 -13 6
-49 6 -80 l0 -57 36 6 c34 6 36 5 29 -18 -4 -12 -30 -72 -56 -131 -27 -59 -49
-112 -49 -117 0 -6 -5 -13 -10 -16 -6 -4 -37 49 -72 122 l-61 128 2 93 3 92
-146 0 -145 0 24 -52z"/>
<path d="M6671 2374 c0 -11 3 -14 6 -6 3 7 2 16 -1 19 -3 4 -6 -2 -5 -13z"/>
<path d="M4926 2262 c-2 -4 4 -8 14 -8 10 0 16 4 14 8 -3 4 -9 8 -14 8 -5 0
-11 -4 -14 -8z"/>
<path d="M3910 2141 c0 -6 4 -13 10 -16 6 -3 7 1 4 9 -7 18 -14 21 -14 7z"/>
<path d="M3871 1904 c0 -11 3 -14 6 -6 3 7 2 16 -1 19 -3 4 -6 -2 -5 -13z"/>
<path d="M6390 1910 c8 -5 20 -10 25 -10 6 0 3 5 -5 10 -8 5 -19 10 -25 10 -5
0 -3 -5 5 -10z"/>
<path d="M6442 1896 c7 -8 15 -12 17 -11 5 6 -10 25 -20 25 -5 0 -4 -6 3 -14z"/>
<path d="M5285 1829 c-4 -6 -5 -12 -2 -15 2 -3 7 2 10 11 7 17 1 20 -8 4z"/>
<path d="M3293 1542 c-23 -15 -44 -30 -48 -34 -11 -10 56 -128 72 -128 18 0
163 70 163 79 0 16 -108 111 -125 110 -11 0 -39 -12 -62 -27z"/>
<path d="M3653 1438 c-29 -16 -53 -36 -53 -42 0 -21 59 -96 76 -96 18 0 97 45
112 63 8 9 0 26 -26 60 -20 26 -41 47 -47 46 -5 0 -34 -14 -62 -31z"/>
<path d="M6784 1542 c-19 -13 -44 -56 -44 -77 1 -13 20 -32 61 -58 33 -21 66
-40 73 -43 8 -3 22 17 39 53 38 85 39 82 -32 109 -68 26 -80 28 -97 16z"/>
<path d="M6415 1420 l-25 -49 58 -41 57 -41 15 23 c8 12 29 41 47 64 l32 42
-65 26 c-35 14 -71 26 -79 26 -8 0 -26 -22 -40 -50z"/>
<path d="M6070 821 c0 -6 4 -13 10 -16 6 -3 7 1 4 9 -7 18 -14 21 -14 7z"/>
<path d="M5945 760 c3 -5 8 -10 11 -10 2 0 4 5 4 10 0 6 -5 10 -11 10 -5 0 -7
-4 -4 -10z"/>
<path d="M5850 750 c0 -5 5 -10 11 -10 5 0 7 5 4 10 -3 6 -8 10 -11 10 -2 0
-4 -4 -4 -10z"/>
<path d="M5951 713 c-10 -11 -10 -17 -2 -24 6 -5 9 -6 6 -3 -3 4 0 13 7 21 15
19 6 24 -11 6z"/>
<path d="M5973 631 c-12 -19 0 -41 14 -27 4 3 0 6 -8 6 -12 0 -12 2 0 9 7 5
12 14 10 20 -2 6 -9 3 -16 -8z"/>
<path d="M5811 614 c0 -11 3 -14 6 -6 3 7 2 16 -1 19 -3 4 -6 -2 -5 -13z"/>
<path d="M5926 595 c4 -8 10 -12 15 -9 11 6 2 24 -11 24 -5 0 -7 -7 -4 -15z"/>
<path d="M5800 585 c0 -5 5 -17 10 -25 5 -8 10 -10 10 -5 0 6 -5 17 -10 25 -5
8 -10 11 -10 5z"/>
<path d="M6070 576 c0 -8 4 -17 9 -20 5 -4 7 3 4 14 -6 23 -13 26 -13 6z"/>
<path d="M6355 570 c-3 -5 -1 -10 4 -10 6 0 11 5 11 10 0 6 -2 10 -4 10 -3 0
-8 -4 -11 -10z"/>
<path d="M5923 548 c-2 -16 1 -18 10 -9 7 7 8 14 1 21 -6 6 -10 2 -11 -12z"/>
<path d="M6017 564 c7 -3 9 -13 6 -22 -4 -14 -3 -14 5 -2 12 16 7 30 -11 29
-9 0 -9 -2 0 -5z"/>
<path d="M6346 533 c-6 -14 -5 -15 5 -6 7 7 10 15 7 18 -3 3 -9 -2 -12 -12z"/>
<path d="M5960 520 c-13 -8 -12 -10 3 -10 9 0 17 5 17 10 0 12 -1 12 -20 0z"/>
<path d="M5913 503 c-3 -10 -8 -21 -10 -25 -2 -5 0 -8 5 -8 5 0 12 11 14 25 6
29 0 33 -9 8z"/>
<path d="M5993 506 c1 -6 -3 -10 -10 -9 -7 2 -10 -4 -6 -13 3 -8 6 -14 7 -12
1 2 9 12 19 24 14 17 14 21 3 21 -8 0 -14 -5 -13 -11z"/>
<path d="M6446 503 c-6 -14 -5 -15 5 -6 7 7 10 15 7 18 -3 3 -9 -2 -12 -12z"/>
<path d="M6308 492 c-9 -2 -19 -9 -21 -17 -5 -10 2 -11 31 -3 65 18 57 33 -10
20z"/>
<path d="M6735 490 c-3 -5 -1 -10 4 -10 6 0 11 5 11 10 0 6 -2 10 -4 10 -3 0
-8 -4 -11 -10z"/>
<path d="M6228 483 c7 -3 16 -2 19 1 4 3 -2 6 -13 5 -11 0 -14 -3 -6 -6z"/>
<path d="M6768 483 c7 -3 16 -2 19 1 4 3 -2 6 -13 5 -11 0 -14 -3 -6 -6z"/>
<path d="M6690 470 c0 -5 5 -10 10 -10 6 0 10 5 10 10 0 6 -4 10 -10 10 -5 0
-10 -4 -10 -10z"/>
<path d="M6101 454 c0 -11 3 -14 6 -6 3 7 2 16 -1 19 -3 4 -6 -2 -5 -13z"/>
<path d="M6192 450 c7 -10 14 -18 15 -16 6 6 -9 36 -18 36 -5 0 -4 -9 3 -20z"/>
<path d="M6620 460 c0 -5 5 -10 11 -10 5 0 7 5 4 10 -3 6 -8 10 -11 10 -2 0
-4 -4 -4 -10z"/>
<path d="M5897 443 c3 -7 6 -13 8 -13 1 0 7 6 13 13 8 10 6 13 -7 13 -11 0
-17 -6 -14 -13z"/>
<path d="M6012 440 c0 -14 2 -19 5 -12 2 6 2 18 0 25 -3 6 -5 1 -5 -13z"/>
<path d="M6380 449 c0 -5 5 -7 10 -4 6 3 10 8 10 11 0 2 -4 4 -10 4 -5 0 -10
-5 -10 -11z"/>
<path d="M5943 435 c0 -8 4 -12 9 -9 5 3 6 10 3 15 -9 13 -12 11 -12 -6z"/>
<path d="M6550 439 c0 -5 5 -7 10 -4 6 3 10 8 10 11 0 2 -4 4 -10 4 -5 0 -10
-5 -10 -11z"/>
<path d="M5784 420 c0 -13 4 -16 10 -10 7 7 7 13 0 20 -6 6 -10 3 -10 -10z"/>
<path d="M6240 430 c-13 -8 -13 -11 -1 -22 9 -8 11 -8 7 -1 -3 6 1 13 11 15
11 2 14 6 8 10 -6 4 -17 3 -25 -2z"/>
<path d="M6455 419 c-4 -6 -5 -12 -2 -15 2 -3 7 2 10 11 7 17 1 20 -8 4z"/>
<path d="M6630 410 c0 -5 5 -10 11 -10 5 0 7 5 4 10 -3 6 -8 10 -11 10 -2 0
-4 -4 -4 -10z"/>
<path d="M6117 403 c-3 -5 -2 -15 2 -22 7 -10 10 -10 16 -1 4 6 3 16 -3 22 -5
5 -12 6 -15 1z"/>
<path d="M6325 400 c-3 -6 1 -7 9 -4 18 7 21 14 7 14 -6 0 -13 -4 -16 -10z"/>
<path d="M6895 399 c-4 -6 -5 -12 -2 -15 2 -3 7 2 10 11 7 17 1 20 -8 4z"/>
<path d="M6040 391 c0 -5 5 -13 10 -16 6 -3 10 -2 10 4 0 5 -4 13 -10 16 -5 3
-10 2 -10 -4z"/>
<path d="M6380 389 c0 -5 5 -7 10 -4 6 3 10 8 10 11 0 2 -4 4 -10 4 -5 0 -10
-5 -10 -11z"/>
<path d="M6420 390 c0 -5 5 -10 11 -10 5 0 7 5 4 10 -3 6 -8 10 -11 10 -2 0
-4 -4 -4 -10z"/>
<path d="M6765 390 c-3 -5 -1 -10 4 -10 6 0 11 5 11 10 0 6 -2 10 -4 10 -3 0
-8 -4 -11 -10z"/>
<path d="M6606 377 c3 -10 9 -15 12 -12 3 3 0 11 -7 18 -10 9 -11 8 -5 -6z"/>
<path d="M5952 367 c10 -8 14 -18 10 -22 -4 -5 -1 -5 6 -1 17 10 15 14 -10 26
-21 10 -21 10 -6 -3z"/>
<path d="M6000 369 c0 -5 5 -7 10 -4 6 3 10 8 10 11 0 2 -4 4 -10 4 -5 0 -10
-5 -10 -11z"/>
<path d="M6180 364 c0 -8 5 -12 10 -9 6 3 10 10 10 16 0 5 -4 9 -10 9 -5 0
-10 -7 -10 -16z"/>
<path d="M6270 370 c0 -5 5 -10 11 -10 5 0 7 5 4 10 -3 6 -8 10 -11 10 -2 0
-4 -4 -4 -10z"/>
<path d="M6490 376 c0 -2 7 -7 16 -10 8 -3 12 -2 9 4 -6 10 -25 14 -25 6z"/>
<path d="M6544 372 c4 -6 -2 -15 -11 -21 -10 -6 -13 -11 -6 -11 6 0 15 5 18
11 4 6 13 8 21 5 7 -3 16 0 20 7 4 7 4 9 -1 5 -4 -4 -17 -3 -28 3 -13 7 -17 8
-13 1z"/>
<path d="M6824 360 c0 -13 4 -16 10 -10 7 7 7 13 0 20 -6 6 -10 3 -10 -10z"/>
<path d="M6036 355 c4 -8 11 -15 16 -15 6 0 5 6 -2 15 -7 8 -14 15 -16 15 -2
0 -1 -7 2 -15z"/>
<path d="M6960 359 c0 -5 5 -7 10 -4 6 3 10 8 10 11 0 2 -4 4 -10 4 -5 0 -10
-5 -10 -11z"/>
<path d="M6427 345 c3 -8 9 -12 14 -9 12 7 11 11 -5 17 -10 4 -13 1 -9 -8z"/>
<path d="M5865 315 c0 -13 3 -21 8 -18 4 2 7 10 7 18 0 8 -3 16 -7 18 -5 3 -8
-5 -8 -18z"/>
<path d="M6075 330 c3 -5 8 -10 11 -10 2 0 4 5 4 10 0 6 -5 10 -11 10 -5 0 -7
-4 -4 -10z"/>
<path d="M6100 325 c0 -8 2 -15 4 -15 2 0 6 7 10 15 3 8 1 15 -4 15 -6 0 -10
-7 -10 -15z"/>
<path d="M6238 297 c-30 -26 -34 -33 -19 -33 11 0 18 3 15 7 -2 4 10 19 28 33
18 14 29 26 23 26 -5 0 -27 -15 -47 -33z"/>
<path d="M6310 321 c0 -5 5 -13 10 -16 6 -3 10 -2 10 4 0 5 -4 13 -10 16 -5 3
-10 2 -10 -4z"/>
<path d="M6561 314 c0 -11 3 -14 6 -6 3 7 2 16 -1 19 -3 4 -6 -2 -5 -13z"/>
<path d="M6656 317 c3 -10 9 -15 12 -12 3 3 0 11 -7 18 -10 9 -11 8 -5 -6z"/>
<path d="M6030 316 c0 -2 7 -9 15 -16 13 -11 14 -10 9 4 -5 14 -24 23 -24 12z"/>
<path d="M6130 310 c-9 -6 -10 -10 -3 -10 6 0 15 5 18 10 8 12 4 12 -15 0z"/>
<path d="M6795 290 c-16 -7 -17 -9 -3 -9 9 -1 20 4 23 9 7 11 7 11 -20 0z"/>
<path d="M6030 271 c0 -5 7 -12 16 -15 14 -5 15 -4 4 9 -14 17 -20 19 -20 6z"/>
<path d="M6154 258 c-10 -12 -13 -18 -6 -14 7 4 18 3 25 -3 9 -7 17 -7 27 1
12 8 12 9 -2 4 -22 -7 -35 13 -17 25 8 5 9 9 3 9 -6 0 -19 -10 -30 -22z"/>
<path d="M6256 263 c-6 -14 -5 -15 5 -6 7 7 10 15 7 18 -3 3 -9 -2 -12 -12z"/>
<path d="M6430 270 c0 -5 5 -10 11 -10 5 0 7 5 4 10 -3 6 -8 10 -11 10 -2 0
-4 -4 -4 -10z"/>
<path d="M6663 265 c0 -8 4 -12 9 -9 5 3 6 10 3 15 -9 13 -12 11 -12 -6z"/>
<path d="M6701 264 c0 -11 3 -14 6 -6 3 7 2 16 -1 19 -3 4 -6 -2 -5 -13z"/>
<path d="M6483 253 c4 -3 1 -13 -6 -22 -11 -14 -10 -14 5 -2 16 12 16 31 1 31
-4 0 -3 -3 0 -7z"/>
<path d="M6379 223 c-13 -16 -12 -17 4 -4 9 7 17 15 17 17 0 8 -8 3 -21 -13z"/>
<path d="M6828 233 c7 -3 16 -2 19 1 4 3 -2 6 -13 5 -11 0 -14 -3 -6 -6z"/>
<path d="M6145 220 c3 -5 8 -10 11 -10 2 0 4 5 4 10 0 6 -5 10 -11 10 -5 0 -7
-4 -4 -10z"/>
<path d="M6310 219 c0 -5 5 -7 10 -4 6 3 10 8 10 11 0 2 -4 4 -10 4 -5 0 -10
-5 -10 -11z"/>
<path d="M6871 214 c0 -11 3 -14 6 -6 3 7 2 16 -1 19 -3 4 -6 -2 -5 -13z"/>
<path d="M6065 210 c-3 -5 -1 -10 4 -10 6 0 11 5 11 10 0 6 -2 10 -4 10 -3 0
-8 -4 -11 -10z"/>
<path d="M6840 211 c0 -6 4 -13 10 -16 6 -3 7 1 4 9 -7 18 -14 21 -14 7z"/>
<path d="M5845 200 c3 -5 8 -10 11 -10 2 0 4 5 4 10 0 6 -5 10 -11 10 -5 0 -7
-4 -4 -10z"/>
<path d="M6261 194 c0 -11 3 -14 6 -6 3 7 2 16 -1 19 -3 4 -6 -2 -5 -13z"/>
<path d="M6035 189 c-4 -6 -5 -12 -2 -15 2 -3 7 2 10 11 7 17 1 20 -8 4z"/>
<path d="M6930 191 c0 -6 4 -13 10 -16 6 -3 7 1 4 9 -7 18 -14 21 -14 7z"/>
<path d="M6772 174 c-7 -8 -8 -14 -3 -14 10 0 25 19 20 25 -2 1 -10 -3 -17
-11z"/>
<path d="M6387 159 c4 -13 8 -18 11 -10 2 7 -1 18 -6 23 -8 8 -9 4 -5 -13z"/>
<path d="M6061 163 c-1 -17 16 -25 25 -12 4 7 3 9 -4 5 -5 -3 -13 0 -15 6 -4
9 -6 10 -6 1z"/>
<path d="M6175 159 c-11 -16 -1 -19 13 -3 7 8 8 14 3 14 -5 0 -13 -5 -16 -11z"/>
<path d="M6277 163 c-4 -3 -7 -11 -7 -17 0 -6 5 -5 12 2 6 6 9 14 7 17 -3 3
-9 2 -12 -2z"/>
<path d="M6980 160 c0 -5 5 -10 11 -10 5 0 7 5 4 10 -3 6 -8 10 -11 10 -2 0
-4 -4 -4 -10z"/>
<path d="M4040 836 c0 -2 8 -10 18 -17 15 -13 16 -12 3 4 -13 16 -21 21 -21
13z"/>
<path d="M3931 814 c0 -11 3 -14 6 -6 3 7 2 16 -1 19 -3 4 -6 -2 -5 -13z"/>
<path d="M4335 760 c3 -5 8 -10 11 -10 2 0 4 5 4 10 0 6 -5 10 -11 10 -5 0 -7
-4 -4 -10z"/>
<path d="M3660 669 c0 -5 5 -7 10 -4 6 3 10 8 10 11 0 2 -4 4 -10 4 -5 0 -10
-5 -10 -11z"/>
<path d="M4410 550 c-13 -8 -12 -10 3 -10 9 0 17 5 17 10 0 12 -1 12 -20 0z"/>
<path d="M3630 490 c0 -4 11 -10 25 -12 13 -3 22 -2 20 2 -7 11 -45 20 -45 10z"/>
<path d="M3386 463 c-6 -14 -5 -15 5 -6 7 7 10 15 7 18 -3 3 -9 -2 -12 -12z"/>
<path d="M3540 469 c0 -5 5 -7 10 -4 6 3 10 8 10 11 0 2 -4 4 -10 4 -5 0 -10
-5 -10 -11z"/>
<path d="M4120 450 c6 -11 13 -20 16 -20 2 0 0 9 -6 20 -6 11 -13 20 -16 20
-2 0 0 -9 6 -20z"/>
<path d="M3888 407 c-4 -20 -1 -23 14 -19 15 4 16 7 6 21 -7 9 -13 17 -14 19
-1 2 -4 -8 -6 -21z"/>
<path d="M4104 419 c-3 -6 -2 -15 3 -20 5 -5 9 -1 9 11 0 23 -2 24 -12 9z"/>
<path d="M3605 380 c4 -6 11 -8 16 -5 14 9 11 15 -7 15 -8 0 -12 -5 -9 -10z"/>
<path d="M4190 369 c0 -5 5 -7 10 -4 6 3 10 8 10 11 0 2 -4 4 -10 4 -5 0 -10
-5 -10 -11z"/>
<path d="M3290 366 c0 -3 9 -10 20 -16 11 -6 20 -8 20 -6 0 3 -9 10 -20 16
-11 6 -20 8 -20 6z"/>
<path d="M3625 359 c-4 -6 -5 -12 -2 -15 2 -3 7 2 10 11 7 17 1 20 -8 4z"/>
<path d="M3940 360 c0 -5 5 -10 11 -10 5 0 7 5 4 10 -3 6 -8 10 -11 10 -2 0
-4 -4 -4 -10z"/>
<path d="M3384 306 c-1 -17 1 -23 3 -13 3 11 11 16 18 13 9 -3 12 0 9 9 -11
28 -29 23 -30 -9z"/>
<path d="M3731 323 c3 -20 -2 -34 -11 -28 -5 3 -10 1 -10 -4 0 -17 20 -13 27
5 3 8 12 13 19 10 21 -8 17 2 -6 14 -11 6 -20 7 -19 3z"/>
<path d="M3451 306 c-9 -11 -9 -16 1 -22 7 -4 10 -4 6 1 -4 4 -3 14 3 22 6 7
9 13 6 13 -2 0 -10 -6 -16 -14z"/>
<path d="M4100 294 c0 -8 5 -12 10 -9 6 4 8 11 5 16 -9 14 -15 11 -15 -7z"/>
<path d="M3271 284 c0 -11 3 -14 6 -6 3 7 2 16 -1 19 -3 4 -6 -2 -5 -13z"/>
<path d="M4310 293 c0 -6 8 -17 18 -24 16 -13 16 -13 2 6 -8 11 -16 22 -17 24
-2 2 -3 0 -3 -6z"/>
<path d="M3564 261 c0 -11 4 -17 8 -15 4 3 8 12 8 20 0 8 -4 14 -8 14 -4 0 -8
-9 -8 -19z"/>
<path d="M3910 271 c0 -5 5 -13 10 -16 6 -3 10 -2 10 4 0 5 -4 13 -10 16 -5 3
-10 2 -10 -4z"/>
<path d="M3690 260 c0 -5 5 -10 11 -10 5 0 7 5 4 10 -3 6 -8 10 -11 10 -2 0
-4 -4 -4 -10z"/>
<path d="M3796 262 c-3 -6 -1 -14 5 -17 14 -9 20 -2 10 14 -6 8 -11 9 -15 3z"/>
<path d="M3726 251 c-9 -15 23 -36 35 -24 8 8 6 11 -7 10 -11 -1 -18 4 -16 11
2 14 -4 16 -12 3z"/>
<path d="M3970 224 c0 -10 5 -26 10 -34 7 -11 8 -8 6 13 -3 32 -16 49 -16 21z"/>
<path d="M4045 230 c-3 -6 1 -7 9 -4 18 7 21 14 7 14 -6 0 -13 -4 -16 -10z"/>
<path d="M3945 209 c-4 -6 -5 -12 -2 -15 2 -3 7 2 10 11 7 17 1 20 -8 4z"/>
<path d="M3369 193 c-13 -16 -12 -17 4 -4 9 7 17 15 17 17 0 8 -8 3 -21 -13z"/>
<path d="M3560 199 c0 -5 5 -7 10 -4 6 3 10 8 10 11 0 2 -4 4 -10 4 -5 0 -10
-5 -10 -11z"/>
<path d="M4125 199 c-11 -16 -1 -19 13 -3 7 8 8 14 3 14 -5 0 -13 -5 -16 -11z"/>
<path d="M4045 180 c-3 -5 -1 -10 4 -10 6 0 11 5 11 10 0 6 -2 10 -4 10 -3 0
-8 -4 -11 -10z"/>
<path d="M4270 180 c0 -5 5 -10 11 -10 5 0 7 5 4 10 -3 6 -8 10 -11 10 -2 0
-4 -4 -4 -10z"/>
<path d="M3710 165 c-7 -9 -8 -15 -2 -15 5 0 12 7 16 15 3 8 4 15 2 15 -2 0
-9 -7 -16 -15z"/>
<path d="M3920 170 c0 -5 5 -10 11 -10 5 0 7 5 4 10 -3 6 -8 10 -11 10 -2 0
-4 -4 -4 -10z"/>
<path d="M3290 166 c0 -2 7 -7 16 -10 8 -3 12 -2 9 4 -6 10 -25 14 -25 6z"/>
<path d="M4675 10146 c-437 -253 -740 -451 -930 -609 -310 -257 -676 -656
-787 -857 -14 -25 -48 -84 -76 -131 -225 -380 -382 -944 -382 -1374 l0 -110
207 3 c115 2 211 7 214 10 3 4 14 45 23 92 44 209 111 363 212 485 170 206
364 374 532 459 66 33 243 102 390 150 61 21 112 41 112 44 0 4 -21 18 -47 32
-65 34 -103 69 -161 148 -84 114 -117 193 -133 313 -16 132 14 270 84 375 118
178 277 270 507 292 l75 7 7 48 c12 89 41 159 94 231 30 39 67 95 85 124 17
29 99 122 181 207 l150 155 -98 -1 -99 -1 -160 -92z m0 -136 c7 -22 -10 -50
-30 -50 -7 0 -25 10 -40 22 l-28 22 29 13 c42 18 62 16 69 -7z m-211 -96 c40
-39 -1 -80 -58 -58 -23 9 -20 40 6 58 28 20 33 20 52 0z m-62 -147 c81 -1 145
-4 142 -9 -3 -4 -25 -20 -50 -34 -43 -25 -49 -26 -147 -20 -116 8 -103 16
-160 -99 -59 -120 -94 -169 -147 -203 -28 -19 -53 -32 -56 -29 -2 2 12 25 32
51 20 26 53 89 73 139 20 51 51 120 69 155 32 62 34 63 65 56 18 -4 98 -7 179
-7z m-68 -156 c45 -18 9 -79 -39 -67 -19 5 -25 13 -25 35 0 43 15 50 64 32z
m-379 -161 c-9 -10 -38 -27 -64 -36 -136 -50 -177 -78 -212 -145 -19 -38 -39
-138 -39 -198 0 -28 3 -32 18 -26 30 12 121 29 126 24 3 -3 2 -18 -2 -33 -8
-28 -11 -30 -167 -61 -246 -49 -232 -48 -238 -17 -3 15 -4 28 -3 29 2 3 46 13
169 40 l38 8 2 100 c2 75 8 111 24 145 24 54 98 125 160 152 40 18 192 49 202
41 2 -2 -4 -12 -14 -23z m-127 -207 c-3 -34 -6 -38 -32 -38 -40 0 -56 27 -32
54 11 12 30 21 43 21 22 0 24 -4 21 -37z m-534 -325 c-4 -52 2 -122 20 -246
14 -96 26 -212 26 -258 0 -46 4 -84 8 -84 12 0 142 147 181 203 18 26 44 73
58 104 24 52 25 63 20 148 -6 92 -6 93 18 97 33 7 35 3 36 -56 1 -92 11 -95
49 -16 44 92 60 106 60 54 0 -50 -29 -110 -127 -265 -85 -134 -159 -236 -243
-332 l-50 -58 0 -85 c0 -103 -13 -135 -80 -198 -54 -50 -62 -53 -80 -31 -10
12 -4 23 33 64 24 28 47 64 51 82 8 42 8 89 -1 89 -4 0 -59 -24 -123 -54 -63
-29 -155 -71 -204 -92 -158 -68 -199 -112 -199 -214 -1 -41 8 -75 33 -132 33
-75 35 -77 55 -63 11 8 55 36 98 61 l78 47 -6 38 c-4 21 -15 67 -26 101 -10
35 -19 68 -19 74 0 12 68 36 74 26 2 -4 11 -45 20 -92 9 -47 20 -100 26 -119
6 -23 6 -39 -1 -47 -5 -6 -59 -42 -119 -79 -60 -36 -112 -70 -115 -75 -3 -4
13 -43 36 -85 37 -68 41 -81 35 -123 -10 -77 -22 -72 -70 29 -25 52 -54 105
-64 118 l-19 23 -48 -58 c-59 -73 -84 -126 -85 -181 0 -31 -5 -45 -19 -53 -40
-21 -44 -14 -39 64 7 103 41 170 114 227 37 28 54 48 50 58 -2 9 -16 49 -31
90 -38 106 -44 202 -15 268 35 82 28 78 308 193 106 44 207 99 252 137 l32 26
-7 136 c-4 75 -11 159 -16 186 -12 72 -27 206 -32 303 l-5 83 31 20 c18 10 35
19 39 19 4 0 5 -33 2 -72z m236 -73 c15 -18 1 -39 -41 -61 -77 -39 -111 6 -36
49 51 30 61 32 77 12z m-392 -127 c17 -17 15 -55 -4 -62 -40 -15 -68 10 -57
52 6 24 41 30 61 10z m417 -58 c13 -21 -16 -47 -72 -64 -32 -10 -64 -21 -70
-23 -9 -4 -13 5 -13 25 0 28 5 32 58 50 65 23 88 26 97 12z m235 -100 c23 -42
-30 -81 -60 -45 -10 12 -10 21 -2 40 14 30 47 33 62 5z m-602 -19 c2 -27 -4
-33 -65 -67 -143 -77 -171 -100 -184 -146 -18 -68 7 -193 40 -201 13 -3 13 -5
-3 -12 -26 -11 -65 5 -90 38 -24 33 -33 133 -17 194 15 55 89 122 178 159 37
16 82 36 98 46 39 23 40 23 43 -11z m625 -169 c15 -16 15 -20 1 -40 -20 -29
-52 -28 -66 3 -21 46 31 75 65 37z m-673 -82 c0 -24 -6 -33 -26 -40 -36 -14
-42 -13 -49 11 -9 26 20 59 52 59 19 0 23 -5 23 -30z m484 -6 c19 -19 20 -25
3 -48 -19 -26 -61 -18 -65 13 -3 15 3 30 14 38 23 17 29 16 48 -3z m-728 -479
c11 -16 11 -25 1 -45 -23 -47 -77 -33 -77 19 0 51 48 68 76 26z m-90 -580 c14
-56 -45 -75 -72 -24 -18 36 -9 49 38 49 21 0 29 -6 34 -25z"/>
<path d="M5213 10156 c138 -126 301 -302 356 -384 44 -66 82 -166 105 -274 6
-27 8 -28 74 -28 75 0 179 -26 260 -66 67 -33 213 -171 251 -237 16 -29 41
-90 56 -137 51 -162 29 -311 -72 -489 -52 -91 -110 -146 -203 -192 -27 -13
-50 -27 -50 -31 0 -8 33 -20 176 -63 327 -100 474 -184 693 -398 115 -113 198
-208 247 -284 54 -83 119 -250 151 -385 l27 -118 171 0 c93 0 187 -3 208 -6
l37 -7 0 107 c0 475 -148 998 -400 1416 -157 260 -248 382 -426 569 -249 261
-475 452 -758 638 -211 139 -296 190 -536 318 -91 49 -182 99 -202 112 -33 20
-50 23 -148 23 l-110 0 93 -84z m357 -141 c39 -20 30 -47 -14 -43 -25 2 -32 8
-34 31 -4 31 6 33 48 12z m189 -96 c35 -12 38 -24 15 -57 -9 -14 -26 -22 -43
-22 -24 0 -29 4 -29 28 0 24 13 62 22 62 2 0 17 -5 35 -11z m281 -244 c25 -49
58 -119 74 -155 16 -35 42 -85 59 -109 l30 -44 -29 7 c-53 13 -97 58 -137 142
-20 43 -50 104 -65 134 -33 62 -29 61 -187 47 l-80 -7 -26 38 -25 37 170 0
170 0 46 -90z m-137 -72 c11 -6 8 -38 -5 -51 -25 -25 -82 -7 -72 24 2 8 6 21
9 29 3 11 12 14 32 9 16 -4 31 -9 36 -11z m464 -152 c186 -48 262 -149 250
-333 -5 -71 -3 -88 8 -88 8 0 60 -10 115 -22 100 -21 101 -21 95 -47 -4 -14
-8 -27 -9 -28 -3 -4 -237 34 -301 48 -104 22 -115 28 -115 60 0 33 5 34 77 15
36 -10 55 -11 59 -4 4 6 7 41 8 78 1 138 -85 237 -241 279 -24 7 -55 23 -70
36 l-28 24 40 1 c22 0 73 -9 112 -19z m61 -205 c4 -36 -10 -50 -42 -42 -19 4
-26 13 -26 29 0 53 62 65 68 13z m520 -272 c20 -14 22 -23 22 -112 0 -53 -7
-150 -15 -217 -9 -66 -22 -183 -29 -260 l-13 -140 25 -22 c38 -32 234 -135
332 -174 90 -35 174 -83 202 -115 28 -32 48 -90 48 -141 0 -68 -26 -167 -56
-220 -15 -24 -23 -48 -18 -52 158 -132 184 -172 184 -279 0 -63 0 -63 -27 -60
-26 3 -29 8 -41 67 -15 76 -34 109 -101 175 l-49 49 -22 -44 c-12 -23 -33 -70
-45 -103 -13 -34 -29 -61 -36 -61 -7 0 -18 18 -25 40 -10 37 -8 44 27 110 22
38 39 75 39 80 -1 6 -37 33 -82 60 -125 77 -138 89 -138 138 1 23 11 85 23
137 23 95 23 95 56 98 38 4 38 13 0 -142 -13 -56 -16 -83 -9 -91 16 -19 164
-115 177 -115 19 0 64 105 70 163 8 74 -1 100 -47 151 -39 43 -74 61 -211 115
-41 16 -120 54 -175 85 -54 30 -102 52 -107 47 -14 -14 22 -144 47 -171 13
-14 31 -37 41 -52 17 -27 17 -28 -1 -28 -24 0 -81 35 -105 63 -24 29 -46 106
-55 192 -7 73 -35 129 -101 206 -16 19 -67 93 -113 164 -46 72 -96 146 -111
165 -34 42 -89 161 -89 191 0 36 23 16 65 -57 l40 -69 3 72 3 72 29 -11 30
-10 0 -97 0 -98 57 -84 c31 -46 78 -113 104 -149 27 -36 59 -80 71 -97 13 -18
26 -33 31 -33 4 0 7 35 7 78 0 65 11 168 35 337 2 17 7 83 11 148 4 64 10 117
13 117 4 0 17 -7 29 -16z m-213 -141 c57 -28 76 -63 34 -63 -38 0 -99 41 -99
67 0 13 2 23 5 23 2 0 29 -12 60 -27z m391 -129 c13 -49 -57 -78 -76 -31 -7
17 -4 26 16 44 28 26 52 21 60 -13z m-314 -105 c-2 -13 -6 -26 -8 -28 -2 -3
-37 7 -77 21 -71 25 -86 40 -73 73 4 11 20 8 83 -14 71 -25 78 -30 75 -52z
m-342 -40 c9 -16 8 -25 -6 -40 -21 -23 -37 -24 -54 -4 -10 12 -10 21 -2 40 14
31 47 33 62 4z m685 -48 c137 -57 167 -89 181 -188 14 -107 -31 -213 -91 -213
-31 0 -31 3 0 64 40 79 32 175 -18 217 -12 11 -64 40 -114 66 -73 37 -93 52
-93 68 0 25 10 37 24 31 6 -2 56 -23 111 -45z m-697 -123 c7 -7 12 -22 12 -35
0 -27 -42 -42 -65 -23 -19 16 -19 29 2 52 19 21 34 23 51 6z m658 -66 c24 -16
34 -49 20 -68 -19 -25 -70 -9 -74 24 -6 38 25 63 54 44z m-476 -41 c16 -32 12
-50 -15 -57 -29 -7 -55 10 -55 35 0 40 51 56 70 22z m719 -472 c13 -12 21 -30
19 -42 -2 -18 -10 -22 -38 -22 -31 0 -35 3 -38 28 -3 26 12 57 27 57 4 0 17
-9 30 -21z m106 -573 c16 -12 18 -19 10 -43 -18 -49 -85 -40 -85 11 0 43 39
59 75 32z"/>
<path d="M5028 10046 c-78 -66 -265 -272 -314 -344 -52 -77 -85 -180 -91 -285
l-6 -88 -51 8 c-28 4 -94 7 -146 7 -118 -2 -204 -33 -282 -103 -212 -190 -226
-514 -31 -722 80 -86 190 -126 318 -116 74 5 115 20 171 63 l32 23 6 -39 c3
-22 11 -50 17 -64 l11 -24 427 -4 c483 -5 454 -10 467 78 6 40 8 44 23 31 9
-8 36 -25 61 -38 39 -21 59 -24 155 -24 100 0 115 3 166 28 71 34 157 121 197
195 49 93 65 163 59 261 -15 241 -164 412 -392 452 -63 11 -160 8 -226 -7 -26
-6 -26 -6 -33 73 -11 127 -43 202 -162 383 -31 47 -286 310 -301 310 -7 0 -40
-24 -75 -54z m58 -208 c4 -7 3 -8 -4 -4 -6 4 -22 1 -34 -5 -21 -11 -22 -11 -9
4 16 20 37 22 47 5z m79 -38 c16 -16 26 -30 23 -30 -4 0 -20 14 -36 30 -17 17
-27 30 -23 30 4 0 20 -13 36 -30z m-215 -74 c0 -2 -8 -10 -17 -17 -16 -13 -17
-12 -4 4 13 16 21 21 21 13z m301 -23 c13 -16 12 -17 -3 -4 -10 7 -18 15 -18
17 0 8 8 3 21 -13z m79 -118 c0 -5 -5 -3 -10 5 -5 8 -10 20 -10 25 0 6 5 3 10
-5 5 -8 10 -19 10 -25z m-9 -408 c-10 -9 -11 -8 -5 6 3 10 9 15 12 12 3 -3 0
-11 -7 -18z m-1098 -101 c-10 -13 -20 -22 -22 -20 -4 4 29 44 36 44 2 0 -4
-11 -14 -24z m548 -12 c9 -11 2 -9 -18 6 -18 13 -33 25 -33 27 0 8 38 -17 51
-33z m99 -109 c14 -19 14 -19 -2 -6 -10 7 -18 18 -18 24 0 6 1 8 3 6 1 -2 9
-13 17 -24z m-380 -69 c0 -2 -8 -10 -17 -17 -16 -13 -17 -12 -4 4 13 16 21 21
21 13z m310 -59 c0 -6 -9 0 -20 13 -11 13 -20 25 -20 28 0 3 9 -3 20 -13 11
-10 20 -23 20 -28z m964 27 c3 -8 2 -12 -4 -9 -6 3 -10 10 -10 16 0 14 7 11
14 -7z m-1344 -54 c-6 -11 -13 -20 -16 -20 -2 0 0 9 6 20 6 11 13 20 16 20 2
0 0 -9 -6 -20z m711 -63 c-10 -9 -11 -8 -5 6 3 10 9 15 12 12 3 -3 0 -11 -7
-18z m-717 -63 c3 -8 2 -12 -4 -9 -6 3 -10 10 -10 16 0 14 7 11 14 -7z m1596
12 c0 -3 -4 -8 -10 -11 -5 -3 -10 -1 -10 4 0 6 5 11 10 11 6 0 10 -2 10 -4z
m-1053 -43 c-3 -10 -5 -4 -5 12 0 17 2 24 5 18 2 -7 2 -21 0 -30z m-721 -15
l29 -33 -32 29 c-31 28 -38 36 -30 36 2 0 16 -15 33 -32z m1524 -12 c0 -2 -8
-10 -17 -17 -16 -13 -17 -12 -4 4 13 16 21 21 21 13z m-1280 -25 c0 -14 -56
-33 -86 -28 -26 4 -25 4 7 6 19 0 44 8 55 16 23 17 24 18 24 6z m1245 -21 c3
-5 2 -10 -4 -10 -5 0 -13 5 -16 10 -3 6 -2 10 4 10 5 0 13 -4 16 -10z m-902
-57 c-7 -2 -21 -2 -30 0 -10 3 -4 5 12 5 17 0 24 -2 18 -5z m115 0 c-10 -2
-26 -2 -35 0 -10 3 -2 5 17 5 19 0 27 -2 18 -5z m99 1 c-3 -3 -12 -4 -19 -1
-8 3 -5 6 6 6 11 1 17 -2 13 -5z m61 -1 c-10 -2 -26 -2 -35 0 -10 3 -2 5 17 5
19 0 27 -2 18 -5z m80 0 c-10 -2 -28 -2 -40 0 -13 2 -5 4 17 4 22 1 32 -1 23
-4z m49 1 c-3 -3 -12 -4 -19 -1 -8 3 -5 6 6 6 11 1 17 -2 13 -5z m130 0 c-3
-3 -12 -4 -19 -1 -8 3 -5 6 6 6 11 1 17 -2 13 -5z"/>
<path d="M1778 8920 c-58 -38 -136 -140 -183 -235 -37 -77 -48 -135 -65 -338
-12 -160 -23 -185 -39 -92 -23 133 -85 257 -154 309 -83 62 -205 94 -255 67
-50 -26 -31 -59 149 -254 75 -82 106 -126 147 -206 45 -88 52 -110 52 -160 0
-81 -11 -181 -21 -181 -4 0 -44 55 -90 123 -116 173 -174 231 -247 248 -59 13
-82 -8 -82 -77 0 -35 7 -69 20 -94 21 -41 123 -135 200 -184 48 -30 123 -114
153 -170 11 -21 24 -83 32 -158 8 -68 17 -141 20 -163 l6 -40 -30 52 c-61 110
-147 198 -221 229 -60 26 -148 29 -205 7 -110 -41 -129 -159 -34 -209 42 -21
90 -4 131 47 17 21 36 39 42 39 24 0 118 -74 151 -118 61 -83 112 -194 149
-321 20 -69 34 -126 32 -128 -2 -3 -26 20 -52 49 -83 90 -127 128 -181 154
-46 23 -63 26 -127 22 -65 -3 -79 -7 -113 -34 -86 -70 -121 -210 -70 -285 12
-18 40 -46 63 -62 51 -36 121 -39 182 -8 44 22 56 46 50 97 -4 36 -28 42 -79
18 -70 -31 -119 15 -66 63 62 57 105 53 200 -18 58 -44 351 -338 344 -346 -2
-1 -27 7 -57 18 -30 11 -85 23 -122 26 -59 5 -74 3 -122 -21 -30 -15 -68 -42
-85 -61 -56 -64 -64 -165 -14 -188 25 -11 33 -8 198 80 43 23 62 27 135 27
104 -1 147 -16 234 -82 102 -78 178 -94 184 -39 3 24 -9 42 -73 108 -114 119
-143 198 -114 304 15 54 49 98 121 153 88 69 109 119 65 160 -31 29 -112 30
-166 2 -84 -42 -121 -119 -121 -251 0 -62 -2 -70 -15 -59 -19 16 -42 93 -51
168 -12 112 40 251 114 305 26 18 86 66 134 106 100 84 148 160 148 238 0 65
-27 87 -97 80 -129 -13 -243 -141 -309 -345 l-28 -87 -8 75 c-12 103 -4 284
16 347 40 128 217 273 332 273 20 0 23 -6 26 -42 3 -41 4 -43 38 -46 97 -7
159 111 93 177 -38 38 -136 58 -202 43 -77 -18 -163 -75 -240 -160 l-71 -77 0
41 c0 28 15 70 50 140 59 120 128 188 231 228 109 41 272 122 307 151 96 80
51 135 -110 135 -75 0 -91 -4 -157 -35 -104 -50 -157 -91 -201 -157 -21 -32
-40 -63 -43 -70 -2 -7 -7 -10 -11 -7 -4 4 3 31 14 61 18 49 57 112 187 308 58
87 113 218 113 271 0 87 -54 111 -132 59z"/>
<path d="M8325 8928 c-25 -19 -27 -26 -23 -78 5 -75 59 -186 176 -362 102
-154 116 -177 130 -230 12 -46 0 -50 -18 -7 -24 57 -141 166 -216 201 -64 31
-76 33 -176 33 -93 0 -110 -3 -135 -21 -15 -12 -29 -30 -31 -41 -5 -36 76 -95
215 -157 180 -80 207 -95 271 -146 105 -85 148 -161 159 -279 l4 -56 -23 30
c-132 173 -302 257 -425 210 -65 -25 -83 -46 -83 -99 0 -61 7 -74 51 -96 70
-36 99 -24 99 41 0 26 3 29 33 29 55 0 130 -44 209 -122 96 -94 134 -170 141
-278 3 -58 -15 -282 -22 -273 -4 4 -15 35 -25 68 -44 145 -123 258 -215 308
-137 75 -228 24 -191 -107 16 -59 56 -104 153 -178 190 -142 228 -199 235
-351 4 -82 1 -109 -18 -167 -25 -77 -41 -92 -33 -30 8 56 -15 152 -47 204 -54
85 -192 125 -245 71 -49 -48 -30 -86 95 -184 80 -64 109 -181 70 -284 -17 -44
-42 -79 -107 -147 -51 -54 -83 -96 -81 -106 10 -53 85 -38 183 37 89 68 130
82 245 83 93 1 97 0 165 -38 159 -89 142 -83 172 -66 52 29 43 119 -19 186
-43 47 -124 84 -181 84 -29 0 -98 -15 -167 -36 -19 -6 -5 15 60 87 97 107 238
244 278 271 47 31 97 40 134 25 18 -8 41 -24 51 -35 41 -45 -17 -92 -73 -58
-41 24 -69 21 -80 -10 -14 -36 6 -73 55 -101 145 -82 316 85 250 244 -40 95
-112 143 -212 143 -98 -1 -192 -58 -280 -172 -43 -56 -73 -77 -58 -40 4 9 21
62 37 117 39 131 95 245 157 321 47 57 123 114 153 114 7 0 22 -17 33 -37 26
-48 55 -63 103 -52 120 27 104 184 -23 219 -148 41 -311 -56 -401 -240 -16
-32 -32 -59 -35 -59 -4 -1 -3 18 1 42 5 23 11 85 15 137 10 122 21 159 78 248
37 57 61 81 114 116 145 93 197 158 209 259 6 48 4 57 -15 76 -18 18 -29 21
-54 15 -53 -11 -101 -40 -144 -87 -39 -42 -165 -228 -186 -274 -6 -13 -13 -23
-17 -23 -4 0 -10 39 -14 88 -5 70 -2 103 13 164 35 136 80 205 243 375 107
111 121 136 99 171 -23 37 -174 17 -251 -34 -83 -55 -154 -184 -170 -309 -5
-43 -12 -80 -14 -82 -7 -7 -15 48 -26 187 -13 157 -22 200 -54 280 -44 108
-144 233 -218 271 -47 24 -49 24 -83 -3z"/>
<path d="M1213 3578 c-42 -45 -53 -70 -64 -143 -16 -113 11 -235 87 -401 3 -6
-21 2 -53 17 -79 40 -188 72 -213 64 -34 -11 -40 -36 -20 -92 24 -69 66 -128
137 -194 54 -49 197 -136 283 -172 27 -11 43 -28 67 -73 36 -68 69 -169 83
-257 11 -67 2 -295 -10 -262 -66 181 -116 269 -206 365 -84 88 -138 113 -249
113 -135 -1 -219 -45 -262 -140 -33 -72 -30 -159 8 -199 34 -37 72 -54 119
-54 56 0 109 48 117 106 5 38 3 42 -36 74 -40 31 -41 33 -25 51 38 43 173 7
247 -64 54 -53 139 -221 167 -332 18 -66 43 -273 35 -283 -1 -1 -17 26 -34 60
-53 101 -91 140 -171 177 -64 30 -79 33 -134 29 -96 -8 -167 -53 -208 -132
-16 -31 -19 -53 -16 -107 4 -82 24 -114 92 -148 38 -19 53 -22 79 -14 39 11
77 64 77 108 0 27 -7 37 -40 59 -46 30 -49 39 -18 60 49 35 134 3 199 -75 58
-69 126 -192 150 -269 20 -68 70 -303 64 -308 -1 -2 -12 12 -24 31 -36 58
-118 127 -198 165 -67 31 -86 36 -148 36 -116 -1 -146 -34 -106 -118 33 -66
100 -122 209 -172 155 -72 176 -85 261 -159 43 -38 78 -71 77 -72 -1 -2 -27 7
-57 19 -77 31 -206 31 -271 1 -101 -47 -170 -125 -183 -209 -10 -59 9 -74 92
-74 53 0 84 8 165 40 118 47 181 57 246 40 87 -24 140 -73 287 -260 124 -159
155 -177 208 -122 38 40 34 70 -18 138 -108 141 -134 188 -156 273 -41 164
-14 302 81 405 41 44 98 73 124 63 25 -10 28 -56 6 -84 -20 -25 -26 -75 -14
-108 9 -21 56 -45 92 -45 67 0 142 91 142 172 0 146 -183 247 -347 192 -132
-43 -191 -133 -209 -315 l-7 -72 -19 36 c-26 52 -78 288 -78 357 0 132 87 368
183 495 75 100 180 148 269 124 60 -16 97 -45 119 -93 29 -64 25 -102 -15
-142 -39 -39 -86 -45 -125 -15 l-24 19 21 27 c30 38 29 82 -2 96 -83 38 -179
-85 -146 -186 49 -148 259 -184 379 -64 55 54 75 111 76 209 0 74 -4 92 -28
137 -57 109 -137 166 -248 179 -153 18 -340 -118 -443 -321 -15 -31 -30 -54
-33 -51 -7 7 15 179 38 290 68 328 244 630 402 691 65 25 136 17 189 -21 64
-45 81 -75 86 -149 4 -63 3 -66 -31 -100 -39 -39 -86 -47 -125 -19 -27 19 -28
35 -2 52 45 28 4 102 -57 102 -77 0 -123 -49 -123 -133 0 -59 17 -93 69 -140
82 -74 213 -75 313 -2 90 66 138 221 105 336 -21 72 -51 115 -112 161 -138
106 -330 99 -478 -17 -60 -47 -160 -188 -218 -308 l-34 -68 -16 84 c-9 45 -28
111 -41 144 l-25 62 58 56 c116 112 162 216 163 367 1 83 -2 100 -20 125 -12
15 -30 29 -41 31 -27 4 -112 -65 -176 -143 l-52 -64 -6 137 c-4 75 -12 155
-19 177 -37 121 -134 245 -192 245 -8 0 -28 -15 -45 -32z m62 -138 c3 -5 1
-10 -5 -10 -6 0 -8 -4 -5 -10 3 -5 1 -10 -4 -10 -6 0 -11 -5 -11 -12 0 -6 8
-4 19 6 18 16 20 15 50 -29 17 -25 31 -49 31 -53 0 -3 -7 4 -16 16 -17 25 -64
30 -64 7 0 -8 -6 -15 -12 -16 -9 0 -9 -2 -2 -5 6 -3 9 -17 7 -32 -3 -22 -2
-23 5 -8 7 16 10 17 17 6 5 -9 4 -15 -3 -18 -18 -6 -14 -22 6 -23 9 0 12 -3 5
-5 -16 -7 -5 -34 14 -34 10 0 13 6 9 16 -3 9 -2 12 5 9 6 -4 8 -14 4 -23 -3
-8 0 -19 7 -24 10 -6 9 -8 -2 -8 -9 0 -21 5 -28 12 -28 28 -2 -29 31 -66 13
-15 20 -17 29 -8 8 8 8 15 -2 27 -7 8 -10 15 -7 15 3 0 12 3 20 6 20 7 22 -86
2 -112 -8 -10 -15 -14 -15 -9 0 6 -15 34 -34 62 -39 60 -72 148 -82 221 -10
79 9 148 31 112z m95 -179 c9 -37 9 -55 0 -70 -15 -29 -22 -26 -10 4 5 14 6
25 2 25 -4 0 -7 14 -7 32 0 18 -6 33 -14 36 -9 3 -11 0 -6 -8 5 -9 4 -11 -4
-6 -9 6 -9 11 0 22 19 23 26 16 39 -35z m-45 -9 c-3 -3 -11 0 -18 7 -9 10 -8
11 6 5 10 -3 15 -9 12 -12z m15 -92 c0 -5 -2 -10 -4 -10 -3 0 -8 5 -11 10 -3
6 -1 10 4 10 6 0 11 -4 11 -10z m329 -105 c-6 -20 -26 -68 -44 -107 -27 -56
-34 -65 -32 -41 1 17 5 29 8 27 4 -2 9 3 13 11 3 8 1 15 -4 15 -5 0 -7 7 -4
15 4 9 0 15 -10 15 -9 0 -16 -5 -16 -11 0 -5 -4 -8 -9 -5 -5 4 -19 -14 -31
-39 -26 -54 -36 -60 -15 -8 25 58 45 76 81 70 26 -4 33 -2 37 13 3 13 -1 21
-14 25 -17 6 -17 8 8 31 36 33 43 30 32 -11z m-457 -122 c57 -17 68 -26 48
-38 -6 -4 -7 -11 -4 -17 4 -6 10 -5 15 3 7 11 9 11 9 1 0 -7 5 -10 10 -7 8 5
7 12 -2 23 -12 14 -10 14 10 3 22 -12 23 -13 5 -26 -10 -7 -21 -11 -25 -9 -4
2 -9 0 -13 -5 -3 -6 9 -18 27 -27 18 -9 37 -23 41 -30 13 -23 27 -16 28 14 l1
27 8 -25 c19 -60 13 -64 -39 -26 -27 20 -51 36 -55 36 -3 0 -37 19 -76 42 -45
27 -70 48 -70 60 0 22 9 22 82 1z m364 -54 c7 -12 -43 -69 -62 -69 -13 0 -12
55 1 68 4 4 6 -8 3 -25 -6 -40 0 -41 29 -6 18 20 20 29 11 35 -9 5 -10 8 -1 8
6 0 15 -5 19 -11z m-227 -13 c10 -12 8 -13 -8 -9 -12 3 -18 9 -15 14 7 12 10
11 23 -5z"/>
<path d="M1262 3378 c-7 -7 -12 -19 -12 -27 1 -13 2 -13 11 2 5 9 19 17 30 17
11 0 17 5 14 10 -8 14 -28 13 -43 -2z"/>
<path d="M1355 3100 c-3 -5 1 -10 9 -10 9 0 16 5 16 10 0 6 -4 10 -9 10 -6 0
-13 -4 -16 -10z"/>
<path d="M1160 2916 c0 -9 5 -16 10 -16 6 0 10 4 10 9 0 5 11 4 25 -2 14 -7
25 -16 25 -20 0 -5 -4 -5 -10 -2 -5 3 -10 1 -10 -5 0 -7 7 -10 15 -6 8 3 15 1
15 -4 0 -6 5 -10 11 -10 8 0 8 4 0 13 -8 10 -7 17 2 27 10 10 9 11 -2 5 -7 -4
-16 -3 -20 2 -3 6 -21 14 -38 18 -26 5 -33 3 -33 -9z"/>
</g>
</svg>
